<?xml version="1.0" encoding="UTF-8"?>
<svg xmlns="http://www.w3.org/2000/svg" xmlns:xlink="http://www.w3.org/1999/xlink" width="150px" height="113px" viewBox="0 0 100 75" version="1.1">
<defs>
<clipPath id="clip1">
  <path d="M 31.722656 23.242188 L 67.582031 23.242188 L 67.582031 65.683594 L 31.722656 65.683594 Z M 31.722656 23.242188 "/>
</clipPath>
<clipPath id="clip2">
  <path d="M 29.457031 14.851562 L 71.269531 14.851562 L 71.269531 43.863281 L 29.457031 43.863281 Z M 29.457031 14.851562 "/>
</clipPath>
</defs>
<g id="surface1">
<path style=" stroke:none;fill-rule:nonzero;fill:rgb(9.019608%,10.588235%,24.313725%);fill-opacity:1;" d="M 21.085938 59.886719 L 20.40625 58.777344 L 21.082031 57.875 L 19.78125 55.75 L 18.667969 55.933594 L 18.015625 54.863281 L 23.824219 54.050781 L 24.476562 55.121094 Z M 23.050781 55.21875 L 20.824219 55.582031 L 21.707031 57.027344 Z M 23.050781 55.21875 "/>
<path style=" stroke:none;fill-rule:nonzero;fill:rgb(9.019608%,10.588235%,24.313725%);fill-opacity:1;" d="M 23.15625 62.296875 L 25.726562 57.121094 L 26.605469 58.089844 L 24.578125 61.902344 L 28.578125 60.273438 L 29.417969 61.203125 L 23.996094 63.226562 Z M 23.15625 62.296875 "/>
<path style=" stroke:none;fill-rule:nonzero;fill:rgb(9.019608%,10.588235%,24.313725%);fill-opacity:1;" d="M 31.984375 63.074219 C 32.414062 63.394531 32.734375 63.785156 32.941406 64.242188 C 33.148438 64.699219 33.226562 65.171875 33.175781 65.664062 C 33.125 66.152344 32.945312 66.605469 32.636719 67.019531 C 32.324219 67.433594 31.941406 67.734375 31.484375 67.921875 C 31.027344 68.109375 30.546875 68.167969 30.046875 68.097656 C 29.546875 68.027344 29.085938 67.832031 28.65625 67.511719 C 28.222656 67.1875 27.90625 66.796875 27.699219 66.335938 C 27.492188 65.878906 27.414062 65.40625 27.464844 64.914062 C 27.515625 64.425781 27.699219 63.96875 28.011719 63.550781 C 28.320312 63.136719 28.707031 62.839844 29.164062 62.652344 C 29.621094 62.46875 30.09375 62.410156 30.589844 62.480469 C 31.085938 62.546875 31.550781 62.746094 31.984375 63.074219 Z M 31.359375 63.929688 C 31.121094 63.75 30.855469 63.644531 30.558594 63.613281 C 30.265625 63.578125 29.980469 63.625 29.703125 63.742188 C 29.425781 63.863281 29.195312 64.046875 29.007812 64.296875 C 28.816406 64.550781 28.703125 64.828125 28.667969 65.128906 C 28.632812 65.429688 28.671875 65.714844 28.78125 65.992188 C 28.890625 66.265625 29.066406 66.492188 29.304688 66.671875 C 29.542969 66.847656 29.804688 66.953125 30.09375 66.980469 C 30.382812 67.007812 30.664062 66.960938 30.941406 66.835938 C 31.214844 66.714844 31.449219 66.527344 31.640625 66.273438 C 31.828125 66.023438 31.941406 65.75 31.980469 65.453125 C 32.019531 65.15625 31.988281 64.871094 31.878906 64.601562 C 31.769531 64.332031 31.597656 64.105469 31.359375 63.929688 Z M 31.359375 63.929688 "/>
<path style=" stroke:none;fill-rule:nonzero;fill:rgb(9.019608%,10.588235%,24.313725%);fill-opacity:1;" d="M 32.597656 69.996094 L 35.167969 65.269531 L 36.234375 65.847656 L 33.667969 70.574219 Z M 32.597656 69.996094 "/>
<path style=" stroke:none;fill-rule:nonzero;fill:rgb(9.019608%,10.588235%,24.313725%);fill-opacity:1;" d="M 39.589844 67.335938 C 40.101562 67.527344 40.519531 67.804688 40.84375 68.167969 C 41.167969 68.53125 41.371094 68.945312 41.453125 69.410156 C 41.535156 69.875 41.484375 70.351562 41.300781 70.839844 C 41.121094 71.328125 40.84375 71.722656 40.472656 72.019531 C 40.101562 72.316406 39.671875 72.496094 39.183594 72.558594 C 38.699219 72.621094 38.191406 72.554688 37.667969 72.359375 L 35.574219 71.582031 L 37.449219 66.539062 Z M 38.097656 71.429688 C 38.375 71.53125 38.652344 71.558594 38.921875 71.511719 C 39.195312 71.460938 39.441406 71.34375 39.652344 71.15625 C 39.863281 70.964844 40.027344 70.71875 40.140625 70.417969 C 40.253906 70.113281 40.285156 69.820312 40.242188 69.53125 C 40.199219 69.238281 40.089844 68.984375 39.910156 68.769531 C 39.734375 68.550781 39.5 68.390625 39.210938 68.285156 L 38.230469 67.917969 L 37.066406 71.046875 Z M 38.097656 71.429688 "/>
<path style=" stroke:none;fill-rule:nonzero;fill:rgb(9.019608%,10.588235%,24.313725%);fill-opacity:1;" d="M 47.792969 69.183594 C 48.472656 69.246094 48.984375 69.457031 49.328125 69.816406 C 49.667969 70.175781 49.8125 70.652344 49.757812 71.242188 C 49.699219 71.867188 49.46875 72.332031 49.058594 72.640625 C 48.652344 72.949219 48.109375 73.070312 47.433594 73.007812 L 46.367188 72.90625 L 46.226562 74.4375 L 45.015625 74.324219 L 45.519531 68.96875 Z M 47.464844 71.992188 C 47.808594 72.027344 48.078125 71.972656 48.269531 71.835938 C 48.464844 71.695312 48.578125 71.476562 48.605469 71.171875 C 48.632812 70.878906 48.5625 70.648438 48.398438 70.480469 C 48.230469 70.3125 47.976562 70.210938 47.636719 70.179688 L 46.632812 70.085938 L 46.464844 71.898438 Z M 47.464844 71.992188 "/>
<path style=" stroke:none;fill-rule:nonzero;fill:rgb(9.019608%,10.588235%,24.313725%);fill-opacity:1;" d="M 51.296875 74.742188 L 50.800781 69.386719 L 52.007812 69.273438 L 52.214844 71.507812 L 54.640625 71.285156 L 54.433594 69.050781 L 55.644531 68.9375 L 56.140625 74.292969 L 54.929688 74.40625 L 54.734375 72.292969 L 52.308594 72.519531 L 52.503906 74.628906 Z M 51.296875 74.742188 "/>
<path style=" stroke:none;fill-rule:nonzero;fill:rgb(9.019608%,10.588235%,24.313725%);fill-opacity:1;" d="M 58.242188 73.8125 L 56.984375 68.582031 L 58.164062 68.296875 L 59.421875 73.527344 Z M 58.242188 73.8125 "/>
<path style=" stroke:none;fill-rule:nonzero;fill:rgb(9.019608%,10.588235%,24.313725%);fill-opacity:1;" d="M 63.402344 68.097656 C 63.082031 68.039062 62.757812 68.015625 62.433594 68.03125 C 62.105469 68.050781 61.839844 68.097656 61.636719 68.175781 C 61.441406 68.25 61.296875 68.34375 61.210938 68.460938 C 61.121094 68.578125 61.105469 68.703125 61.160156 68.839844 C 61.226562 69.019531 61.359375 69.121094 61.558594 69.152344 C 61.757812 69.183594 62.050781 69.183594 62.4375 69.152344 C 62.820312 69.125 63.140625 69.117188 63.402344 69.132812 C 63.664062 69.148438 63.910156 69.226562 64.144531 69.367188 C 64.378906 69.511719 64.558594 69.746094 64.683594 70.074219 C 64.804688 70.398438 64.824219 70.707031 64.742188 71.003906 C 64.660156 71.300781 64.492188 71.566406 64.242188 71.796875 C 63.988281 72.03125 63.675781 72.21875 63.296875 72.359375 C 62.890625 72.515625 62.460938 72.597656 62.015625 72.601562 C 61.570312 72.605469 61.15625 72.539062 60.773438 72.398438 L 60.875 71.296875 C 61.214844 71.433594 61.574219 71.507812 61.957031 71.519531 C 62.339844 71.535156 62.667969 71.488281 62.941406 71.386719 C 63.175781 71.296875 63.34375 71.183594 63.445312 71.046875 C 63.542969 70.910156 63.5625 70.761719 63.503906 70.597656 C 63.453125 70.46875 63.367188 70.378906 63.246094 70.328125 C 63.125 70.28125 62.988281 70.253906 62.832031 70.253906 C 62.675781 70.253906 62.464844 70.261719 62.199219 70.285156 C 61.816406 70.320312 61.5 70.332031 61.246094 70.316406 C 60.992188 70.304688 60.75 70.230469 60.515625 70.09375 C 60.285156 69.957031 60.105469 69.726562 59.980469 69.402344 C 59.867188 69.101562 59.847656 68.804688 59.925781 68.515625 C 60.003906 68.226562 60.164062 67.964844 60.410156 67.730469 C 60.65625 67.496094 60.972656 67.308594 61.359375 67.160156 C 61.703125 67.03125 62.0625 66.953125 62.4375 66.925781 C 62.8125 66.898438 63.160156 66.921875 63.480469 66.992188 Z M 63.402344 68.097656 "/>
<path style=" stroke:none;fill-rule:nonzero;fill:rgb(9.019608%,10.588235%,24.313725%);fill-opacity:1;" d="M 66.984375 70.726562 L 64.207031 66.121094 L 65.246094 65.492188 L 66.40625 67.414062 L 68.488281 66.15625 L 67.332031 64.234375 L 68.371094 63.605469 L 71.152344 68.210938 L 70.109375 68.839844 L 69.015625 67.023438 L 66.929688 68.28125 L 68.027344 70.097656 Z M 66.984375 70.726562 "/>
<path style=" stroke:none;fill-rule:nonzero;fill:rgb(9.019608%,10.588235%,24.313725%);fill-opacity:1;" d="M 72.832031 66.863281 L 69.421875 62.703125 L 70.359375 61.933594 L 73.769531 66.09375 Z M 72.832031 66.863281 "/>
<path style=" stroke:none;fill-rule:nonzero;fill:rgb(9.019608%,10.588235%,24.313725%);fill-opacity:1;" d="M 76.527344 60.671875 L 73.964844 58.332031 L 74.742188 57.480469 L 78.714844 61.105469 L 77.96875 61.925781 L 73.65625 61.515625 L 76.210938 63.847656 L 75.425781 64.703125 L 71.457031 61.078125 L 72.203125 60.261719 Z M 76.527344 60.671875 "/>
<path style=" stroke:none;fill-rule:nonzero;fill:rgb(9.019608%,10.588235%,24.313725%);fill-opacity:1;" d="M 79.636719 54.769531 L 80.1875 53.867188 L 81.972656 54.953125 C 82.003906 55.308594 81.96875 55.691406 81.871094 56.101562 C 81.777344 56.511719 81.632812 56.871094 81.4375 57.1875 C 81.160156 57.644531 80.804688 57.996094 80.367188 58.242188 C 79.933594 58.488281 79.472656 58.609375 78.980469 58.605469 C 78.488281 58.597656 78.019531 58.460938 77.570312 58.1875 C 77.128906 57.917969 76.792969 57.566406 76.566406 57.128906 C 76.339844 56.691406 76.238281 56.214844 76.265625 55.707031 C 76.292969 55.199219 76.449219 54.710938 76.734375 54.242188 C 76.941406 53.902344 77.207031 53.605469 77.527344 53.351562 C 77.851562 53.101562 78.1875 52.921875 78.539062 52.8125 L 78.925781 53.847656 C 78.664062 53.921875 78.417969 54.042969 78.1875 54.207031 C 77.960938 54.375 77.777344 54.570312 77.640625 54.792969 C 77.480469 55.0625 77.394531 55.34375 77.390625 55.644531 C 77.382812 55.945312 77.453125 56.222656 77.597656 56.484375 C 77.742188 56.746094 77.949219 56.960938 78.21875 57.125 C 78.492188 57.289062 78.78125 57.375 79.082031 57.382812 C 79.386719 57.390625 79.671875 57.324219 79.933594 57.183594 C 80.199219 57.042969 80.410156 56.835938 80.574219 56.570312 C 80.65625 56.433594 80.722656 56.273438 80.773438 56.085938 C 80.824219 55.902344 80.855469 55.710938 80.863281 55.515625 Z M 79.636719 54.769531 "/>
<path style=" stroke:none;fill-rule:nonzero;fill:rgb(9.019608%,10.588235%,24.313725%);fill-opacity:1;" d="M 27.640625 7.871094 L 28.347656 8.984375 L 28.871094 8.652344 L 31.199219 12.3125 L 30.675781 12.644531 L 31.390625 13.769531 L 34.527344 11.773438 L 33.816406 10.652344 L 32.953125 11.199219 L 32.273438 10.125 L 33.875 9.105469 L 33.164062 7.984375 L 31.558594 9.003906 L 30.625 7.535156 L 31.898438 6.726562 L 32.378906 7.476562 L 33.871094 6.527344 L 32.683594 4.660156 Z M 27.640625 7.871094 "/>
<path style=" stroke:none;fill-rule:nonzero;fill:rgb(9.019608%,10.588235%,24.313725%);fill-opacity:1;" d="M 34.742188 3.75 L 35.234375 4.972656 L 35.820312 4.738281 L 37.4375 8.765625 L 36.855469 9 L 37.347656 10.234375 L 40.429688 8.996094 L 39.933594 7.761719 L 39.359375 7.992188 L 37.742188 3.964844 L 38.316406 3.734375 L 37.824219 2.511719 Z M 34.742188 3.75 "/>
<path style=" stroke:none;fill-rule:nonzero;fill:rgb(9.019608%,10.588235%,24.313725%);fill-opacity:1;" d="M 41.382812 8.550781 L 43.101562 8.226562 L 43.066406 7.449219 C 43.523438 7.820312 44.296875 8.152344 45.289062 7.964844 C 46.460938 7.742188 47.789062 6.921875 47.5 5.390625 C 47.0625 3.082031 43.21875 4.050781 43.027344 3.039062 C 42.960938 2.695312 43.320312 2.445312 43.605469 2.390625 C 44.292969 2.261719 44.941406 2.566406 45.078125 3.292969 L 46.855469 2.957031 L 46.390625 0.492188 L 44.699219 0.808594 L 44.757812 1.652344 C 44.226562 0.992188 43.339844 0.882812 42.515625 1.039062 C 41.550781 1.222656 40.300781 2.140625 40.578125 3.59375 C 41.050781 6.101562 44.761719 5.0625 44.90625 5.828125 C 44.984375 6.242188 44.507812 6.414062 44.164062 6.476562 C 43.75 6.535156 42.898438 6.554688 42.742188 5.730469 L 40.914062 6.074219 Z M 41.382812 8.550781 "/>
<path style=" stroke:none;fill-rule:nonzero;fill:rgb(9.019608%,10.588235%,24.313725%);fill-opacity:1;" d="M 49.242188 0.257812 L 49.15625 1.574219 L 49.703125 1.613281 L 49.414062 5.953125 L 48.867188 5.914062 L 48.777344 7.234375 L 52.011719 7.449219 L 52.097656 6.128906 L 51.480469 6.089844 L 51.582031 4.582031 L 53.476562 4.710938 L 53.375 6.214844 L 52.789062 6.175781 L 52.699219 7.492188 L 55.941406 7.710938 L 56.03125 6.390625 L 55.449219 6.355469 L 55.738281 2.015625 L 56.320312 2.050781 L 56.40625 0.734375 L 53.164062 0.519531 L 53.074219 1.835938 L 53.664062 1.875 L 53.5625 3.382812 L 51.667969 3.257812 L 51.769531 1.75 L 52.386719 1.789062 L 52.476562 0.472656 Z M 49.242188 0.257812 "/>
<path style=" stroke:none;fill-rule:nonzero;fill:rgb(9.019608%,10.588235%,24.313725%);fill-opacity:1;" d="M 58.988281 1.300781 L 58.582031 2.554688 L 59.183594 2.75 L 57.851562 6.878906 L 57.253906 6.6875 L 56.847656 7.953125 L 62.585938 9.800781 L 63.277344 7.648438 L 61.632812 7.121094 L 61.347656 8.003906 L 59.824219 7.515625 L 60.324219 5.964844 L 62.132812 6.542969 L 62.539062 5.277344 L 60.730469 4.695312 L 61.152344 3.382812 L 62.675781 3.875 L 62.402344 4.71875 L 64.050781 5.25 L 64.726562 3.148438 Z M 58.988281 1.300781 "/>
<path style=" stroke:none;fill-rule:nonzero;fill:rgb(9.019608%,10.588235%,24.313725%);fill-opacity:1;" d="M 67.125 4.195312 L 66.4375 5.3125 L 66.914062 5.605469 L 64.632812 9.316406 L 64.15625 9.023438 L 63.464844 10.148438 L 66.214844 11.839844 L 66.90625 10.714844 L 66.386719 10.398438 L 67.199219 9.078125 C 67.957031 9.542969 67.933594 9.789062 67.457031 10.5625 C 66.84375 11.558594 67.019531 12.476562 68.136719 13.164062 C 69.082031 13.746094 69.785156 13.273438 70.21875 12.566406 L 70.507812 12.097656 L 69.9375 11.746094 L 69.761719 12.027344 C 69.65625 12.199219 69.527344 12.257812 69.398438 12.179688 C 69.246094 12.085938 69.324219 11.839844 69.550781 11.472656 C 69.929688 10.859375 69.714844 10.023438 69.179688 9.578125 C 69.949219 9.910156 70.765625 9.765625 71.171875 9.101562 C 71.769531 8.132812 71.871094 7.113281 69.894531 5.898438 Z M 68.675781 6.675781 L 69.101562 6.9375 C 69.59375 7.242188 69.71875 7.667969 69.410156 8.171875 C 69.132812 8.621094 68.664062 8.664062 68.167969 8.359375 L 67.785156 8.121094 Z M 68.675781 6.675781 "/>
<g clip-path="url(#clip1)" clip-rule="nonzero">
<path style=" stroke:none;fill-rule:nonzero;fill:rgb(9.019608%,10.588235%,24.313725%);fill-opacity:1;" d="M 66.230469 41.246094 C 67.480469 39.089844 66.371094 36.125 66.371094 36.125 C 67.8125 33.40625 66.890625 29.71875 64.355469 27.257812 C 55.769531 19.476562 39.5 23.171875 37.832031 38.0625 C 37.566406 41.605469 36.890625 44.507812 38.679688 49.242188 C 37.695312 50.71875 37.484375 51.316406 39.128906 53.757812 C 34.71875 55.269531 38.082031 61.390625 31.734375 60.0625 C 38.746094 65.683594 42.183594 64.523438 43.039062 58.550781 C 44.671875 63.6875 50.472656 61.8125 51.925781 65.683594 C 52.953125 60.363281 49.21875 55.535156 46.101562 54.773438 C 46.796875 54.382812 47.523438 54.160156 48.035156 53.351562 C 49.753906 55.875 54.691406 60.996094 65.644531 62.359375 C 64.496094 59.878906 69.710938 57.601562 66.449219 48.65625 C 66.945312 47.183594 66.5625 45.953125 66.40625 44.992188 C 66.910156 43.625 66.933594 42.617188 66.230469 41.246094 "/>
</g>
<path style=" stroke:none;fill-rule:nonzero;fill:rgb(100%,100%,100%);fill-opacity:1;" d="M 64.554688 35.371094 C 61.785156 33.191406 54.96875 34.628906 48.472656 39.625 C 47.914062 41.6875 46.898438 41.007812 46.964844 43.894531 C 37.890625 31.769531 40.078125 52.375 46.292969 49.058594 L 46.671875 46.75 C 49.441406 47.628906 53.339844 54.457031 59.476562 54.144531 C 61.074219 54.0625 61.886719 53.027344 61.449219 51.828125 C 61.089844 51.394531 60.082031 51.296875 59.03125 51.476562 C 60.480469 49.605469 60.441406 50.898438 62.589844 50.722656 C 63.574219 50.640625 63.898438 50.011719 64.386719 50.148438 C 64.679688 50.988281 64.542969 52.011719 64.542969 52.011719 C 64.046875 51.238281 63.632812 51.335938 63.210938 51.746094 C 63.566406 52.722656 65.523438 55.480469 65.691406 50.023438 L 65.390625 48.097656 C 65.835938 47.433594 65.648438 46.230469 65.355469 45.238281 C 66.046875 44.085938 65.710938 42.238281 65.1875 40.621094 C 66.148438 38.398438 66.066406 36.910156 64.554688 35.371094 "/>
<path style=" stroke:none;fill-rule:nonzero;fill:rgb(9.019608%,10.588235%,24.313725%);fill-opacity:1;" d="M 66.066406 37.179688 C 64.652344 36.09375 63.421875 35.738281 61.617188 36.042969 C 59.339844 34.730469 56.449219 33.796875 53.304688 32.855469 L 52.171875 33.316406 C 55.644531 34.375 59.140625 35.734375 60.945312 36.882812 L 63.253906 40.914062 C 64.316406 43.027344 67.300781 41.609375 66.066406 37.179688 "/>
<path style=" stroke:none;fill-rule:nonzero;fill:rgb(69.411765%,69.411765%,68.235294%);fill-opacity:1;" d="M 48.191406 42.914062 C 50.058594 44.863281 51.054688 44.429688 53.832031 45.210938 C 52.914062 46.066406 52.320312 47.484375 52.574219 49.59375 C 51.964844 49.152344 51.710938 48.238281 51.792969 46.554688 C 50.015625 46.210938 48.191406 42.914062 48.191406 42.914062 "/>
<path style=" stroke:none;fill-rule:nonzero;fill:rgb(9.019608%,10.588235%,24.313725%);fill-opacity:1;" d="M 44.851562 44.386719 C 42.917969 40.429688 42.273438 40.503906 42.117188 43.910156 C 42.742188 42.132812 43.167969 42.21875 43.722656 44.820312 C 42.613281 45.722656 43.261719 46.511719 44.4375 47.28125 C 45.046875 46.15625 44.851562 44.386719 44.851562 44.386719 "/>
<path style=" stroke:none;fill-rule:nonzero;fill:rgb(98.431373%,75.686275%,3.137255%);fill-opacity:1;" d="M 65.660156 34.039062 C 59.949219 32.367188 50.769531 34.945312 46 40.453125 C 40.59375 36.386719 39.191406 41.738281 40.949219 47.480469 C 41.253906 49.433594 40.878906 49.667969 39.984375 48.574219 C 37.714844 41.601562 40.972656 38.476562 46.753906 33.816406 C 42.925781 37.078125 38.640625 38.261719 38.710938 44.574219 C 37.777344 37.777344 40.417969 39.066406 43.511719 34.40625 C 43.511719 34.40625 39.683594 34.53125 37.808594 38.679688 C 39.527344 20.722656 56.945312 22.886719 62.699219 27.636719 C 58.117188 25.769531 49.398438 32.132812 46.265625 33.277344 C 52.660156 30.589844 59.363281 28.707031 63.195312 30.929688 C 60.011719 30.03125 49.804688 32.167969 45.753906 36.6875 C 54.621094 31.101562 64.890625 31.011719 65.660156 34.039062 "/>
<path style=" stroke:none;fill-rule:nonzero;fill:rgb(98.431373%,75.686275%,3.137255%);fill-opacity:1;" d="M 39.355469 49.933594 C 39.355469 49.933594 38.539062 53.113281 41.535156 53.5 C 41.039062 52.691406 40.878906 51.84375 41.152344 50.65625 C 40.078125 50.53125 39.355469 49.933594 39.355469 49.933594 "/>
<path style=" stroke:none;fill-rule:nonzero;fill:rgb(98.431373%,75.686275%,3.137255%);fill-opacity:1;" d="M 39.84375 54.304688 C 37.167969 55.796875 37.484375 60.148438 35.300781 60.921875 C 35.300781 60.921875 38.613281 61.929688 40.066406 56.847656 C 40.320312 59.902344 39.6875 61.222656 38.144531 62.230469 C 40.507812 62.695312 42.273438 60.308594 41.902344 54.644531 C 41.023438 55.15625 40.378906 54.816406 39.84375 54.304688 "/>
<path style=" stroke:none;fill-rule:nonzero;fill:rgb(98.431373%,75.686275%,3.137255%);fill-opacity:1;" d="M 42.402344 54.105469 C 42.945312 57.890625 45.960938 61.855469 50.058594 62.230469 C 47.402344 60.429688 46.1875 59.085938 45.0625 56.847656 C 46.410156 57.945312 48.21875 59.941406 50.285156 60.109375 C 49.308594 58.527344 46.679688 55.558594 45.023438 54.847656 C 44.210938 55.210938 42.667969 54.265625 42.402344 54.105469 "/>
<path style=" stroke:none;fill-rule:nonzero;fill:rgb(9.019608%,10.588235%,24.313725%);fill-opacity:1;" d="M 64.082031 42.003906 C 63.121094 42.59375 61.25 41.699219 60.621094 42.410156 C 59.75 44.425781 58.730469 44.203125 57.175781 43.953125 C 57.976562 44.367188 58.847656 45.609375 59.996094 45.28125 C 56.976562 46.007812 58.078125 49.007812 53.542969 48.085938 C 57.027344 50.476562 61.929688 47.601562 62.351562 46.59375 C 64.371094 48.777344 65.386719 48.515625 66.480469 46.964844 C 64.464844 48.179688 64.734375 44.886719 63.351562 44.761719 C 63.679688 43.761719 64.007812 42.996094 64.082031 42.003906 "/>
<g clip-path="url(#clip2)" clip-rule="nonzero">
<path style=" stroke:none;fill-rule:nonzero;fill:rgb(9.019608%,10.588235%,24.313725%);fill-opacity:1;" d="M 65.832031 31.734375 C 65.832031 31.734375 62.984375 31.808594 57.171875 31.808594 C 51.359375 31.808594 43.089844 35.769531 40.777344 37.527344 C 37.226562 40.226562 38.417969 43.859375 38.371094 43.855469 C 35.609375 43.621094 33.636719 44.214844 31.773438 41.5 C 29.914062 38.785156 29.527344 29.191406 29.460938 27.472656 C 29.34375 24.378906 34.46875 26.636719 40.863281 25.921875 C 43.945312 25.574219 49.082031 19.152344 53.296875 17.019531 C 62.097656 12.566406 66.394531 16.21875 66.996094 16.996094 C 67.984375 18.289062 67.144531 23.144531 67.144531 24.410156 C 67.144531 25.675781 71.378906 24.550781 71.269531 27.078125 C 71.175781 29.28125 66.210938 34.660156 66.207031 35.695312 L 65.832031 31.734375 "/>
</g>
<path style=" stroke:none;fill-rule:nonzero;fill:rgb(9.019608%,10.588235%,24.313725%);fill-opacity:1;" d="M 65.503906 34.222656 C 60.351562 31.253906 58.796875 31.65625 46.390625 31.679688 C 50.308594 29.21875 56.414062 26.707031 64.125 27.355469 L 66.832031 32.410156 L 65.503906 34.222656 "/>
<path style=" stroke:none;fill-rule:nonzero;fill:rgb(9.019608%,10.588235%,24.313725%);fill-opacity:1;" d="M 42.390625 39.265625 C 43.222656 38.3125 44.445312 37.136719 45.71875 35.9375 C 44.097656 36.804688 42.65625 37.988281 41.457031 39.597656 L 42.390625 39.265625 "/>
<path style=" stroke:none;fill-rule:nonzero;fill:rgb(98.431373%,75.686275%,3.137255%);fill-opacity:1;" d="M 65.628906 18.65625 C 65.582031 18.285156 65.554688 17.917969 65.539062 17.550781 C 64.585938 17.019531 63.121094 16.472656 61.1875 16.546875 C 57.65625 16.675781 54.722656 17.972656 49.984375 21.507812 C 49.03125 22.21875 48.089844 23.015625 47.179688 23.785156 C 45.222656 25.441406 43.371094 27.007812 41.753906 27.457031 C 38.78125 28.28125 33.375 27.898438 31.632812 27.746094 C 31.632812 27.746094 31.628906 27.75 31.628906 27.753906 C 31.59375 28.121094 31.582031 28.488281 31.59375 28.855469 C 31.59375 28.859375 31.597656 28.863281 31.597656 28.863281 C 32.554688 28.949219 34.4375 29.089844 36.472656 29.089844 C 38.425781 29.089844 40.511719 28.960938 42.054688 28.535156 C 43.910156 28.019531 45.847656 26.378906 47.898438 24.640625 C 48.796875 23.878906 49.726562 23.09375 50.652344 22.402344 C 55.1875 19.023438 57.953125 17.78125 61.230469 17.664062 C 63.535156 17.578125 65.042969 18.484375 65.679688 18.96875 C 65.660156 18.855469 65.644531 18.75 65.628906 18.65625 "/>
<path style=" stroke:none;fill-rule:nonzero;fill:rgb(98.431373%,75.686275%,3.137255%);fill-opacity:1;" d="M 67.238281 25.917969 C 67.238281 25.917969 67.691406 26.230469 68.386719 26.328125 C 69.078125 26.429688 69.703125 26.429688 70.128906 26.597656 C 70.550781 26.765625 70.523438 27.066406 70.523438 27.066406 L 70.097656 28.113281 C 70.097656 28.113281 69.703125 27.632812 69.152344 27.53125 C 68.597656 27.433594 68.414062 27.488281 67.945312 27.417969 C 67.480469 27.347656 67.238281 27.179688 67.238281 27.179688 L 67.238281 25.917969 "/>
<path style=" stroke:none;fill-rule:nonzero;fill:rgb(9.019608%,10.588235%,24.313725%);fill-opacity:1;" d="M 44.285156 40.109375 C 44.386719 38.769531 46.476562 37.53125 48.351562 36.285156 C 46.722656 37.800781 45.199219 39.324219 44.921875 40.929688 L 44.285156 40.109375 "/>
<path style=" stroke:none;fill-rule:nonzero;fill:rgb(69.411765%,69.411765%,68.235294%);fill-opacity:1;" d="M 61.449219 51.828125 C 61.105469 51.414062 60.171875 51.304688 59.175781 51.453125 L 60.011719 52.261719 C 60.011719 52.261719 59.144531 55.917969 51.734375 49.933594 C 47.171875 46.253906 46.261719 44.488281 46.261719 44.488281 C 46.261719 44.488281 45.796875 48.34375 44.695312 48.519531 C 43.59375 48.695312 41.691406 45.433594 41.457031 43.855469 C 41.222656 42.277344 41.335938 41.3125 42.097656 40.929688 C 43.339844 40.300781 43.546875 40.894531 44.511719 41.128906 C 38.382812 35.761719 40.71875 52.03125 46.292969 49.058594 L 46.671875 46.75 C 49.441406 47.628906 53.339844 54.457031 59.476562 54.144531 C 61.074219 54.0625 61.886719 53.027344 61.449219 51.828125 "/>
<path style=" stroke:none;fill-rule:nonzero;fill:rgb(69.411765%,69.411765%,68.235294%);fill-opacity:1;" d="M 65.457031 41.554688 C 65.011719 41.914062 64.472656 41.976562 64.003906 41.726562 L 64.082031 42.003906 L 62.714844 45.03125 L 64.269531 47.972656 L 64.007812 48.519531 C 64.007812 48.519531 64.972656 48.507812 64.949219 48.945312 C 64.925781 49.386719 65.394531 49.789062 64.386719 50.148438 C 64.679688 50.988281 64.542969 52.011719 64.542969 52.011719 C 64.046875 51.238281 63.632812 51.335938 63.210938 51.746094 C 63.566406 52.722656 65.523438 55.480469 65.691406 50.023438 L 65.390625 48.097656 C 65.835938 47.433594 65.648438 46.230469 65.355469 45.238281 C 65.914062 44.304688 65.800781 42.914062 65.457031 41.554688 "/>
<path style=" stroke:none;fill-rule:nonzero;fill:rgb(9.019608%,10.588235%,24.313725%);fill-opacity:1;" d="M 64.949219 48.945312 C 64.949219 48.945312 64.152344 46.847656 62.472656 47.9375 C 60.890625 47.101562 59.808594 47.972656 58.519531 49.425781 C 60.433594 48.183594 61.1875 48.964844 62.519531 48.925781 C 63.527344 48.964844 63.449219 48.28125 64.949219 48.945312 "/>
<path style=" stroke:none;fill-rule:nonzero;fill:rgb(69.411765%,69.411765%,68.235294%);fill-opacity:1;" d="M 57.796875 44.382812 C 57.582031 44.214844 57.378906 44.058594 57.175781 43.953125 C 57.363281 44.15625 57.574219 44.296875 57.796875 44.382812 "/>
<path style=" stroke:none;fill-rule:nonzero;fill:rgb(69.411765%,69.411765%,68.235294%);fill-opacity:1;" d="M 60.011719 41.878906 C 60.058594 41.5625 60.269531 40.929688 60.269531 40.929688 L 59.207031 37.269531 C 58.917969 38.382812 58.066406 38.605469 57.402344 39.839844 C 57.453125 40.304688 57.535156 41.296875 57.371094 41.554688 C 57.152344 41.898438 56.566406 43.285156 57.175781 43.953125 C 58.730469 44.203125 59.75 44.425781 60.621094 42.410156 C 60.632812 42.398438 60.648438 42.386719 60.660156 42.371094 C 60.363281 42.269531 59.980469 42.085938 60.011719 41.878906 "/>
<path style=" stroke:none;fill-rule:nonzero;fill:rgb(69.411765%,69.411765%,68.235294%);fill-opacity:1;" d="M 57.796875 41.015625 C 57.796875 41.015625 57.539062 41.125 56.042969 41.015625 C 54.546875 40.90625 52.699219 39.914062 52.699219 39.914062 C 52.699219 39.914062 52.394531 39.480469 52.363281 39.121094 C 52.335938 38.765625 52.363281 38.277344 52.363281 38.277344 C 52.363281 38.277344 51.976562 37.886719 53.734375 37.570312 C 55.492188 37.253906 55.988281 37.214844 56.90625 37.996094 C 57.828125 38.777344 58.210938 39.320312 58.335938 39.921875 C 58.457031 40.523438 57.796875 41.015625 57.796875 41.015625 "/>
<path style=" stroke:none;fill-rule:nonzero;fill:rgb(9.019608%,10.588235%,24.313725%);fill-opacity:1;" d="M 59.207031 37.269531 C 59.207031 37.269531 58.132812 37.957031 57.65625 37.566406 C 55.808594 36.011719 52.71875 37.011719 52.363281 38.277344 C 53.957031 37.507812 55.371094 37.265625 56.269531 38.238281 C 54.875 38.085938 53.933594 38.550781 52.699219 39.914062 C 54.484375 38.929688 55.992188 39.210938 57.359375 39.914062 C 58.03125 38.613281 58.914062 38.40625 59.207031 37.269531 "/>
<path style=" stroke:none;fill-rule:nonzero;fill:rgb(9.019608%,10.588235%,24.313725%);fill-opacity:1;" d="M 47.828125 48.863281 L 46.242188 47.421875 C 45.621094 47.035156 44.4375 47.757812 44.746094 48.972656 L 46.113281 50.484375 L 47.828125 48.863281 "/>
<path style=" stroke:none;fill-rule:nonzero;fill:rgb(98.431373%,75.686275%,3.137255%);fill-opacity:1;" d="M 44.730469 53.617188 C 43.777344 53.617188 43 53.222656 42.539062 52.507812 C 42 51.671875 41.957031 50.503906 42.40625 49.339844 L 43.148438 49.964844 C 42.957031 50.75 43.066406 51.480469 43.449219 51.984375 C 43.78125 52.429688 44.304688 52.671875 44.921875 52.671875 C 45.125 52.671875 45.335938 52.648438 45.554688 52.597656 C 46.195312 52.445312 46.648438 51.96875 46.773438 51.320312 C 46.917969 50.554688 46.617188 49.421875 45.351562 48.503906 C 45.359375 48.386719 45.421875 48.246094 45.515625 48.132812 C 45.601562 48.03125 45.695312 47.972656 45.769531 47.972656 C 45.789062 47.972656 45.816406 47.972656 45.847656 48 C 47.109375 48.882812 47.796875 50.167969 47.648438 51.351562 C 47.53125 52.308594 46.882812 53.058594 45.828125 53.464844 C 45.445312 53.566406 45.078125 53.617188 44.730469 53.617188 "/>
</g>
</svg>
