<?xml version="1.0" encoding="UTF-8"?>
<svg xmlns="http://www.w3.org/2000/svg" xmlns:xlink="http://www.w3.org/1999/xlink" width="150px" height="113px" viewBox="0 0 150 113" version="1.1">
<defs>
<clipPath id="clip1">
  <path d="M 47.585938 35.019531 L 101.371094 35.019531 L 101.371094 98.960938 L 47.585938 98.960938 Z M 47.585938 35.019531 "/>
</clipPath>
<clipPath id="clip2">
  <path d="M 44.1875 22.375 L 106.90625 22.375 L 106.90625 66.089844 L 44.1875 66.089844 Z M 44.1875 22.375 "/>
</clipPath>
</defs>
<g id="surface1">
<path style=" stroke:none;fill-rule:nonzero;fill:rgb(100%,100%,100%);fill-opacity:1;" d="M 31.628906 90.230469 L 30.609375 88.558594 L 31.621094 87.195312 L 29.671875 83.996094 L 28.003906 84.273438 L 27.023438 82.664062 L 35.734375 81.4375 L 36.714844 83.050781 Z M 34.574219 83.199219 L 31.234375 83.742188 L 32.5625 85.921875 Z M 34.574219 83.199219 "/>
<path style=" stroke:none;fill-rule:nonzero;fill:rgb(100%,100%,100%);fill-opacity:1;" d="M 34.734375 93.863281 L 38.59375 86.0625 L 39.90625 87.523438 L 36.871094 93.265625 L 42.867188 90.8125 L 44.125 92.210938 L 35.992188 95.261719 Z M 34.734375 93.863281 "/>
<path style=" stroke:none;fill-rule:nonzero;fill:rgb(100%,100%,100%);fill-opacity:1;" d="M 47.976562 95.03125 C 48.621094 95.515625 49.101562 96.101562 49.414062 96.792969 C 49.726562 97.480469 49.84375 98.195312 49.765625 98.933594 C 49.6875 99.667969 49.417969 100.351562 48.953125 100.972656 C 48.484375 101.597656 47.910156 102.050781 47.222656 102.332031 C 46.539062 102.617188 45.820312 102.707031 45.070312 102.601562 C 44.324219 102.496094 43.625 102.199219 42.980469 101.714844 C 42.335938 101.226562 41.859375 100.640625 41.550781 99.945312 C 41.242188 99.257812 41.125 98.542969 41.199219 97.804688 C 41.273438 97.066406 41.546875 96.378906 42.019531 95.75 C 42.484375 95.125 43.058594 94.675781 43.742188 94.398438 C 44.429688 94.117188 45.144531 94.027344 45.886719 94.136719 C 46.628906 94.238281 47.324219 94.539062 47.976562 95.03125 Z M 47.039062 96.320312 C 46.683594 96.050781 46.28125 95.890625 45.839844 95.84375 C 45.398438 95.792969 44.96875 95.859375 44.554688 96.039062 C 44.140625 96.21875 43.792969 96.5 43.511719 96.875 C 43.226562 97.257812 43.054688 97.675781 43.003906 98.128906 C 42.949219 98.578125 43.003906 99.011719 43.167969 99.425781 C 43.335938 99.839844 43.597656 100.179688 43.953125 100.449219 C 44.3125 100.71875 44.707031 100.875 45.140625 100.914062 C 45.574219 100.957031 45.996094 100.886719 46.410156 100.699219 C 46.820312 100.515625 47.171875 100.230469 47.457031 99.851562 C 47.738281 99.472656 47.910156 99.0625 47.972656 98.613281 C 48.03125 98.167969 47.980469 97.738281 47.820312 97.332031 C 47.65625 96.925781 47.398438 96.585938 47.039062 96.320312 Z M 47.039062 96.320312 "/>
<path style=" stroke:none;fill-rule:nonzero;fill:rgb(100%,100%,100%);fill-opacity:1;" d="M 48.898438 105.460938 L 52.75 98.339844 L 54.351562 99.214844 L 50.5 106.335938 Z M 48.898438 105.460938 "/>
<path style=" stroke:none;fill-rule:nonzero;fill:rgb(100%,100%,100%);fill-opacity:1;" d="M 59.382812 101.449219 C 60.152344 101.738281 60.78125 102.15625 61.269531 102.703125 C 61.753906 103.25 62.058594 103.875 62.179688 104.574219 C 62.300781 105.277344 62.226562 105.996094 61.953125 106.730469 C 61.679688 107.46875 61.265625 108.0625 60.707031 108.511719 C 60.152344 108.957031 59.511719 109.230469 58.777344 109.320312 C 58.046875 109.414062 57.289062 109.3125 56.503906 109.023438 L 53.359375 107.847656 L 56.171875 100.253906 Z M 57.144531 107.617188 C 57.5625 107.773438 57.976562 107.816406 58.386719 107.742188 C 58.796875 107.667969 59.160156 107.488281 59.476562 107.207031 C 59.796875 106.921875 60.039062 106.550781 60.210938 106.09375 C 60.378906 105.640625 60.429688 105.195312 60.367188 104.757812 C 60.300781 104.320312 60.136719 103.9375 59.867188 103.613281 C 59.601562 103.285156 59.25 103.042969 58.816406 102.878906 L 57.347656 102.332031 L 55.601562 107.042969 Z M 57.144531 107.617188 "/>
<path style=" stroke:none;fill-rule:nonzero;fill:rgb(100%,100%,100%);fill-opacity:1;" d="M 71.6875 104.234375 C 72.710938 104.332031 73.480469 104.652344 73.992188 105.191406 C 74.503906 105.730469 74.722656 106.449219 74.640625 107.339844 C 74.550781 108.277344 74.199219 108.980469 73.589844 109.445312 C 72.976562 109.910156 72.164062 110.09375 71.148438 109.996094 L 69.554688 109.847656 L 69.339844 112.15625 L 67.527344 111.984375 L 68.277344 103.914062 Z M 71.199219 108.46875 C 71.710938 108.519531 72.113281 108.441406 72.40625 108.230469 C 72.699219 108.023438 72.867188 107.691406 72.910156 107.234375 C 72.953125 106.789062 72.847656 106.441406 72.597656 106.191406 C 72.347656 105.9375 71.96875 105.785156 71.453125 105.738281 L 69.953125 105.59375 L 69.695312 108.328125 Z M 71.199219 108.46875 "/>
<path style=" stroke:none;fill-rule:nonzero;fill:rgb(100%,100%,100%);fill-opacity:1;" d="M 76.945312 112.609375 L 76.203125 104.542969 L 78.015625 104.375 L 78.324219 107.738281 L 81.964844 107.402344 L 81.652344 104.035156 L 83.46875 103.867188 L 84.210938 111.9375 L 82.398438 112.105469 L 82.105469 108.921875 L 78.464844 109.261719 L 78.757812 112.441406 Z M 76.945312 112.609375 "/>
<path style=" stroke:none;fill-rule:nonzero;fill:rgb(100%,100%,100%);fill-opacity:1;" d="M 87.363281 111.210938 L 85.476562 103.332031 L 87.246094 102.902344 L 89.132812 110.785156 Z M 87.363281 111.210938 "/>
<path style=" stroke:none;fill-rule:nonzero;fill:rgb(100%,100%,100%);fill-opacity:1;" d="M 95.101562 102.601562 C 94.621094 102.511719 94.136719 102.476562 93.648438 102.5 C 93.160156 102.527344 92.761719 102.597656 92.453125 102.714844 C 92.160156 102.828125 91.945312 102.972656 91.8125 103.144531 C 91.683594 103.320312 91.65625 103.511719 91.738281 103.71875 C 91.835938 103.988281 92.039062 104.144531 92.339844 104.191406 C 92.640625 104.238281 93.078125 104.238281 93.652344 104.191406 C 94.226562 104.144531 94.710938 104.136719 95.101562 104.160156 C 95.492188 104.183594 95.867188 104.300781 96.21875 104.515625 C 96.570312 104.730469 96.839844 105.085938 97.027344 105.578125 C 97.210938 106.066406 97.238281 106.53125 97.113281 106.976562 C 96.992188 107.425781 96.738281 107.824219 96.359375 108.175781 C 95.984375 108.523438 95.511719 108.808594 94.945312 109.023438 C 94.335938 109.257812 93.695312 109.378906 93.023438 109.386719 C 92.355469 109.390625 91.730469 109.289062 91.15625 109.078125 L 91.308594 107.421875 C 91.820312 107.625 92.363281 107.734375 92.9375 107.757812 C 93.511719 107.777344 94.003906 107.710938 94.414062 107.554688 C 94.765625 107.417969 95.015625 107.25 95.164062 107.046875 C 95.316406 106.839844 95.34375 106.613281 95.253906 106.367188 C 95.179688 106.171875 95.050781 106.039062 94.871094 105.960938 C 94.6875 105.886719 94.480469 105.851562 94.246094 105.847656 C 94.011719 105.847656 93.695312 105.863281 93.300781 105.898438 C 92.726562 105.949219 92.25 105.964844 91.867188 105.945312 C 91.484375 105.925781 91.121094 105.8125 90.773438 105.609375 C 90.425781 105.402344 90.15625 105.054688 89.972656 104.566406 C 89.800781 104.113281 89.773438 103.667969 89.890625 103.230469 C 90.003906 102.792969 90.246094 102.398438 90.617188 102.046875 C 90.984375 101.695312 91.457031 101.410156 92.035156 101.1875 C 92.554688 100.992188 93.097656 100.875 93.65625 100.832031 C 94.21875 100.792969 94.738281 100.828125 95.222656 100.933594 Z M 95.101562 102.601562 "/>
<path style=" stroke:none;fill-rule:nonzero;fill:rgb(100%,100%,100%);fill-opacity:1;" d="M 100.476562 106.558594 L 96.308594 99.621094 L 97.871094 98.675781 L 99.605469 101.570312 L 102.734375 99.675781 L 100.996094 96.777344 L 102.558594 95.832031 L 106.726562 102.773438 L 105.164062 103.71875 L 103.519531 100.980469 L 100.394531 102.878906 L 102.039062 105.617188 Z M 100.476562 106.558594 "/>
<path style=" stroke:none;fill-rule:nonzero;fill:rgb(100%,100%,100%);fill-opacity:1;" d="M 109.246094 100.742188 L 104.128906 94.472656 L 105.539062 93.3125 L 110.65625 99.578125 Z M 109.246094 100.742188 "/>
<path style=" stroke:none;fill-rule:nonzero;fill:rgb(100%,100%,100%);fill-opacity:1;" d="M 114.792969 91.414062 L 110.949219 87.886719 L 112.113281 86.601562 L 118.070312 92.066406 L 116.953125 93.300781 L 110.484375 92.683594 L 114.316406 96.199219 L 113.140625 97.488281 L 107.183594 92.023438 L 108.304688 90.792969 Z M 114.792969 91.414062 "/>
<path style=" stroke:none;fill-rule:nonzero;fill:rgb(100%,100%,100%);fill-opacity:1;" d="M 119.457031 82.519531 L 120.28125 81.160156 L 122.957031 82.796875 C 123.003906 83.332031 122.953125 83.90625 122.808594 84.523438 C 122.664062 85.140625 122.449219 85.6875 122.160156 86.160156 C 121.742188 86.851562 121.207031 87.382812 120.554688 87.753906 C 119.902344 88.125 119.207031 88.304688 118.46875 88.296875 C 117.730469 88.289062 117.027344 88.078125 116.359375 87.671875 C 115.695312 87.265625 115.191406 86.730469 114.851562 86.074219 C 114.511719 85.410156 114.359375 84.699219 114.402344 83.933594 C 114.441406 83.167969 114.675781 82.429688 115.105469 81.726562 C 115.414062 81.210938 115.8125 80.761719 116.292969 80.382812 C 116.777344 80.007812 117.28125 79.734375 117.8125 79.574219 L 118.390625 81.132812 C 117.996094 81.242188 117.625 81.421875 117.285156 81.671875 C 116.941406 81.925781 116.667969 82.21875 116.464844 82.554688 C 116.21875 82.957031 116.09375 83.386719 116.085938 83.835938 C 116.078125 84.289062 116.179688 84.710938 116.394531 85.105469 C 116.613281 85.496094 116.925781 85.816406 117.332031 86.066406 C 117.738281 86.316406 118.171875 86.445312 118.625 86.457031 C 119.082031 86.46875 119.507812 86.371094 119.898438 86.15625 C 120.296875 85.941406 120.617188 85.632812 120.859375 85.230469 C 120.984375 85.027344 121.082031 84.785156 121.160156 84.503906 C 121.234375 84.222656 121.28125 83.9375 121.296875 83.640625 Z M 119.457031 82.519531 "/>
<path style=" stroke:none;fill-rule:nonzero;fill:rgb(100%,100%,100%);fill-opacity:1;" d="M 41.457031 11.855469 L 42.519531 13.535156 L 43.304688 13.035156 L 46.796875 18.550781 L 46.011719 19.054688 L 47.082031 20.742188 L 51.792969 17.738281 L 50.722656 16.046875 L 49.429688 16.871094 L 48.410156 15.257812 L 50.8125 13.71875 L 49.742188 12.03125 L 47.339844 13.566406 L 45.9375 11.351562 L 47.851562 10.132812 L 48.566406 11.265625 L 50.804688 9.832031 L 49.027344 7.023438 Z M 41.457031 11.855469 "/>
<path style=" stroke:none;fill-rule:nonzero;fill:rgb(100%,100%,100%);fill-opacity:1;" d="M 52.117188 5.648438 L 52.855469 7.492188 L 53.730469 7.140625 L 56.15625 13.207031 L 55.28125 13.558594 L 56.023438 15.417969 L 60.644531 13.554688 L 59.902344 11.695312 L 59.039062 12.042969 L 56.609375 5.976562 L 57.472656 5.628906 L 56.734375 3.78125 Z M 52.117188 5.648438 "/>
<path style=" stroke:none;fill-rule:nonzero;fill:rgb(100%,100%,100%);fill-opacity:1;" d="M 62.074219 12.882812 L 64.652344 12.394531 L 64.597656 11.222656 C 65.285156 11.78125 66.445312 12.28125 67.933594 12 C 69.691406 11.667969 71.683594 10.429688 71.25 8.121094 C 70.59375 4.640625 64.824219 6.105469 64.539062 4.582031 C 64.441406 4.0625 64.980469 3.683594 65.40625 3.601562 C 66.4375 3.40625 67.410156 3.867188 67.617188 4.960938 L 70.285156 4.453125 L 69.585938 0.738281 L 67.050781 1.21875 L 67.136719 2.492188 C 66.339844 1.492188 65.011719 1.332031 63.773438 1.566406 C 62.328125 1.839844 60.453125 3.226562 60.863281 5.417969 C 61.574219 9.191406 67.144531 7.628906 67.359375 8.78125 C 67.476562 9.402344 66.761719 9.664062 66.246094 9.761719 C 65.621094 9.847656 64.34375 9.875 64.113281 8.632812 L 61.371094 9.152344 Z M 62.074219 12.882812 "/>
<path style=" stroke:none;fill-rule:nonzero;fill:rgb(100%,100%,100%);fill-opacity:1;" d="M 73.863281 0.390625 L 73.734375 2.375 L 74.554688 2.429688 L 74.121094 8.96875 L 73.300781 8.914062 L 73.167969 10.898438 L 78.015625 11.222656 L 78.148438 9.238281 L 77.21875 9.175781 L 77.371094 6.90625 L 80.214844 7.09375 L 80.0625 9.363281 L 79.179688 9.304688 L 79.050781 11.289062 L 83.914062 11.617188 L 84.046875 9.632812 L 83.175781 9.574219 L 83.609375 3.035156 L 84.476562 3.09375 L 84.609375 1.109375 L 79.746094 0.78125 L 79.613281 2.765625 L 80.496094 2.828125 L 80.347656 5.097656 L 77.503906 4.90625 L 77.652344 2.636719 L 78.582031 2.699219 L 78.714844 0.714844 Z M 73.863281 0.390625 "/>
<path style=" stroke:none;fill-rule:nonzero;fill:rgb(100%,100%,100%);fill-opacity:1;" d="M 88.480469 1.957031 L 87.875 3.851562 L 88.773438 4.140625 L 86.78125 10.367188 L 85.878906 10.074219 L 85.269531 11.984375 L 93.878906 14.765625 L 94.917969 11.523438 L 92.445312 10.726562 L 92.019531 12.058594 L 89.734375 11.320312 L 90.484375 8.984375 L 93.195312 9.859375 L 93.808594 7.953125 L 91.09375 7.078125 L 91.730469 5.097656 L 94.011719 5.835938 L 93.605469 7.113281 L 96.074219 7.910156 L 97.089844 4.742188 Z M 88.480469 1.957031 "/>
<path style=" stroke:none;fill-rule:nonzero;fill:rgb(100%,100%,100%);fill-opacity:1;" d="M 100.6875 6.320312 L 99.65625 8 L 100.375 8.445312 L 96.949219 14.039062 L 96.234375 13.597656 L 95.195312 15.289062 L 99.324219 17.839844 L 100.359375 16.144531 L 99.582031 15.664062 L 100.796875 13.675781 C 101.933594 14.378906 101.902344 14.746094 101.1875 15.914062 C 100.269531 17.417969 100.53125 18.800781 102.203125 19.832031 C 103.625 20.707031 104.675781 19.996094 105.328125 18.929688 L 105.761719 18.226562 L 104.902344 17.695312 L 104.644531 18.121094 C 104.488281 18.378906 104.289062 18.46875 104.097656 18.351562 C 103.867188 18.207031 103.988281 17.839844 104.328125 17.289062 C 104.894531 16.363281 104.570312 15.105469 103.769531 14.429688 C 104.921875 14.933594 106.148438 14.714844 106.761719 13.714844 C 107.65625 12.253906 107.804688 10.714844 104.839844 8.886719 Z M 103.011719 10.054688 L 103.652344 10.449219 C 104.394531 10.910156 104.578125 11.554688 104.117188 12.3125 C 103.699219 12.992188 102.996094 13.050781 102.253906 12.59375 L 101.679688 12.238281 Z M 103.011719 10.054688 "/>
<g clip-path="url(#clip1)" clip-rule="nonzero">
<path style=" stroke:none;fill-rule:nonzero;fill:rgb(9.019608%,10.588235%,24.313725%);fill-opacity:1;" d="M 99.347656 62.140625 C 101.222656 58.894531 99.558594 54.429688 99.558594 54.429688 C 101.71875 50.335938 100.335938 44.777344 96.53125 41.070312 C 83.65625 29.347656 59.25 34.914062 56.746094 57.34375 C 56.351562 62.683594 55.335938 67.058594 58.019531 74.1875 C 56.542969 76.414062 56.230469 77.316406 58.695312 80.996094 C 52.074219 83.273438 57.121094 92.496094 47.601562 90.492188 C 58.121094 98.960938 63.277344 97.21875 64.554688 88.214844 C 67.003906 95.957031 75.710938 93.132812 77.886719 98.960938 C 79.425781 90.949219 73.828125 83.675781 69.152344 82.527344 C 70.195312 81.9375 71.28125 81.601562 72.054688 80.386719 C 74.632812 84.1875 82.035156 91.902344 98.46875 93.953125 C 96.746094 90.21875 104.566406 86.785156 99.671875 73.308594 C 100.417969 71.09375 99.847656 69.238281 99.605469 67.789062 C 100.367188 65.726562 100.402344 64.207031 99.347656 62.140625 "/>
</g>
<path style=" stroke:none;fill-rule:nonzero;fill:rgb(100%,100%,100%);fill-opacity:1;" d="M 96.832031 53.292969 C 92.675781 50.007812 82.453125 52.171875 72.710938 59.699219 C 71.867188 62.808594 70.347656 61.78125 70.449219 66.132812 C 56.832031 47.867188 60.121094 78.910156 69.441406 73.914062 L 70.007812 70.433594 C 74.164062 71.761719 80.011719 82.046875 89.214844 81.578125 C 91.613281 81.457031 92.832031 79.894531 92.175781 78.085938 C 91.632812 77.433594 90.121094 77.285156 88.546875 77.558594 C 90.71875 74.738281 90.664062 76.6875 93.882812 76.421875 C 95.359375 76.296875 95.847656 75.351562 96.582031 75.558594 C 97.015625 76.824219 96.816406 78.363281 96.816406 78.363281 C 96.070312 77.199219 95.449219 77.34375 94.820312 77.960938 C 95.351562 79.433594 98.28125 83.589844 98.535156 75.367188 L 98.082031 72.46875 C 98.75 71.464844 98.472656 69.652344 98.03125 68.15625 C 99.070312 66.425781 98.566406 63.640625 97.777344 61.199219 C 99.21875 57.851562 99.101562 55.613281 96.832031 53.292969 "/>
<path style=" stroke:none;fill-rule:nonzero;fill:rgb(9.019608%,10.588235%,24.313725%);fill-opacity:1;" d="M 99.101562 56.015625 C 96.976562 54.378906 95.132812 53.84375 92.425781 54.304688 C 89.011719 52.324219 84.675781 50.921875 79.957031 49.5 L 78.257812 50.195312 C 83.46875 51.792969 88.710938 53.835938 91.417969 55.570312 L 94.882812 61.644531 C 96.476562 64.832031 100.953125 62.695312 99.101562 56.015625 "/>
<path style=" stroke:none;fill-rule:nonzero;fill:rgb(69.411765%,69.411765%,68.235294%);fill-opacity:1;" d="M 72.289062 64.65625 C 75.085938 67.597656 76.582031 66.941406 80.75 68.117188 C 79.371094 69.410156 78.480469 71.542969 78.859375 74.722656 C 77.949219 74.058594 77.570312 72.679688 77.6875 70.144531 C 75.019531 69.621094 72.289062 64.65625 72.289062 64.65625 "/>
<path style=" stroke:none;fill-rule:nonzero;fill:rgb(9.019608%,10.588235%,24.313725%);fill-opacity:1;" d="M 67.273438 66.875 C 64.375 60.910156 63.40625 61.027344 63.175781 66.15625 C 64.117188 63.476562 64.75 63.609375 65.582031 67.53125 C 63.921875 68.890625 64.894531 70.078125 66.65625 71.238281 C 67.566406 69.539062 67.273438 66.875 67.273438 66.875 "/>
<path style=" stroke:none;fill-rule:nonzero;fill:rgb(98.431373%,75.686275%,3.137255%);fill-opacity:1;" d="M 98.488281 51.285156 C 89.925781 48.765625 76.15625 52.648438 69.003906 60.949219 C 60.890625 54.824219 58.789062 62.886719 61.421875 71.535156 C 61.878906 74.476562 61.320312 74.832031 59.976562 73.183594 C 56.574219 62.683594 61.460938 57.972656 70.132812 50.949219 C 64.386719 55.867188 57.960938 57.644531 58.066406 67.160156 C 56.667969 56.917969 60.625 58.863281 65.269531 51.839844 C 65.269531 51.839844 59.527344 52.027344 56.714844 58.277344 C 59.292969 31.222656 85.417969 34.480469 94.050781 41.636719 C 87.175781 38.824219 74.09375 48.414062 69.394531 50.136719 C 78.992188 46.089844 89.046875 43.253906 94.792969 46.601562 C 90.019531 45.246094 74.707031 48.464844 68.628906 55.273438 C 81.933594 46.859375 97.335938 46.722656 98.488281 51.285156 "/>
<path style=" stroke:none;fill-rule:nonzero;fill:rgb(98.431373%,75.686275%,3.137255%);fill-opacity:1;" d="M 59.035156 75.234375 C 59.035156 75.234375 57.804688 80.023438 62.304688 80.605469 C 61.554688 79.390625 61.316406 78.109375 61.726562 76.320312 C 60.117188 76.132812 59.035156 75.234375 59.035156 75.234375 "/>
<path style=" stroke:none;fill-rule:nonzero;fill:rgb(98.431373%,75.686275%,3.137255%);fill-opacity:1;" d="M 59.765625 81.816406 C 55.753906 84.070312 56.226562 90.621094 52.949219 91.789062 C 52.949219 91.789062 57.921875 93.304688 60.097656 85.652344 C 60.480469 90.253906 59.53125 92.238281 57.214844 93.757812 C 60.761719 94.460938 63.414062 90.863281 62.855469 82.328125 C 61.535156 83.101562 60.570312 82.589844 59.765625 81.816406 "/>
<path style=" stroke:none;fill-rule:nonzero;fill:rgb(98.431373%,75.686275%,3.137255%);fill-opacity:1;" d="M 63.601562 81.519531 C 64.414062 87.222656 68.941406 93.195312 75.085938 93.757812 C 71.101562 91.046875 69.28125 89.023438 67.589844 85.652344 C 69.617188 87.304688 72.324219 90.3125 75.425781 90.5625 C 73.960938 88.183594 70.023438 83.707031 67.535156 82.636719 C 66.320312 83.183594 64 81.761719 63.601562 81.519531 "/>
<path style=" stroke:none;fill-rule:nonzero;fill:rgb(9.019608%,10.588235%,24.313725%);fill-opacity:1;" d="M 96.125 63.285156 C 94.679688 64.171875 91.875 62.824219 90.929688 63.898438 C 89.621094 66.9375 88.09375 66.601562 85.765625 66.222656 C 86.96875 66.847656 88.269531 68.71875 89.996094 68.222656 C 85.460938 69.316406 87.117188 73.839844 80.316406 72.449219 C 85.542969 76.054688 92.894531 71.722656 93.523438 70.203125 C 96.554688 73.492188 98.082031 73.097656 99.71875 70.757812 C 96.695312 72.59375 97.101562 67.632812 95.023438 67.441406 C 95.519531 65.9375 96.007812 64.785156 96.125 63.285156 "/>
<g clip-path="url(#clip2)" clip-rule="nonzero">
<path style=" stroke:none;fill-rule:nonzero;fill:rgb(9.019608%,10.588235%,24.313725%);fill-opacity:1;" d="M 98.746094 47.808594 C 98.746094 47.808594 94.476562 47.925781 85.757812 47.925781 C 77.039062 47.925781 64.632812 53.894531 61.167969 56.539062 C 55.84375 60.609375 57.628906 66.082031 57.558594 66.074219 C 53.417969 65.722656 50.453125 66.613281 47.664062 62.527344 C 44.875 58.4375 44.289062 43.984375 44.191406 41.390625 C 44.015625 36.730469 51.703125 40.132812 61.292969 39.054688 C 65.914062 38.535156 73.625 28.855469 79.949219 25.644531 C 93.148438 18.933594 99.59375 24.433594 100.492188 25.609375 C 101.980469 27.558594 100.71875 34.871094 100.71875 36.777344 C 100.71875 38.6875 107.066406 36.988281 106.90625 40.796875 C 106.761719 44.117188 99.316406 52.222656 99.3125 53.78125 L 98.746094 47.808594 "/>
</g>
<path style=" stroke:none;fill-rule:nonzero;fill:rgb(9.019608%,10.588235%,24.313725%);fill-opacity:1;" d="M 98.253906 51.558594 C 90.523438 47.089844 88.195312 47.699219 69.585938 47.730469 C 75.464844 44.023438 84.617188 40.242188 96.183594 41.210938 L 100.246094 48.828125 L 98.253906 51.558594 "/>
<path style=" stroke:none;fill-rule:nonzero;fill:rgb(9.019608%,10.588235%,24.313725%);fill-opacity:1;" d="M 63.582031 59.15625 C 64.832031 57.726562 66.671875 55.957031 68.574219 54.144531 C 66.144531 55.449219 63.984375 57.234375 62.183594 59.660156 L 63.582031 59.15625 "/>
<path style=" stroke:none;fill-rule:nonzero;fill:rgb(98.431373%,75.686275%,3.137255%);fill-opacity:1;" d="M 98.445312 28.109375 C 98.371094 27.550781 98.332031 26.996094 98.304688 26.441406 C 96.878906 25.644531 94.683594 24.820312 91.78125 24.929688 C 86.484375 25.121094 82.085938 27.078125 74.976562 32.40625 C 73.546875 33.476562 72.132812 34.675781 70.765625 35.839844 C 67.832031 38.332031 65.058594 40.691406 62.632812 41.367188 C 58.171875 42.613281 50.066406 42.035156 47.445312 41.800781 C 47.445312 41.804688 47.445312 41.808594 47.445312 41.816406 C 47.390625 42.371094 47.375 42.925781 47.390625 43.476562 C 47.390625 43.484375 47.394531 43.484375 47.394531 43.488281 C 48.828125 43.617188 51.65625 43.828125 54.710938 43.828125 C 57.636719 43.828125 60.769531 43.632812 63.078125 42.992188 C 65.863281 42.214844 68.769531 39.742188 71.847656 37.125 C 73.195312 35.980469 74.589844 34.792969 75.976562 33.753906 C 82.777344 28.660156 86.929688 26.792969 91.84375 26.609375 C 95.304688 26.484375 97.566406 27.847656 98.519531 28.578125 C 98.492188 28.410156 98.464844 28.25 98.445312 28.109375 "/>
<path style=" stroke:none;fill-rule:nonzero;fill:rgb(98.431373%,75.686275%,3.137255%);fill-opacity:1;" d="M 100.855469 39.050781 C 100.855469 39.050781 101.539062 39.519531 102.578125 39.667969 C 103.621094 39.816406 104.554688 39.816406 105.191406 40.074219 C 105.828125 40.328125 105.785156 40.777344 105.785156 40.777344 L 105.148438 42.355469 C 105.148438 42.355469 104.554688 41.632812 103.726562 41.480469 C 102.898438 41.332031 102.621094 41.417969 101.917969 41.3125 C 101.21875 41.203125 100.855469 40.949219 100.855469 40.949219 L 100.855469 39.050781 "/>
<path style=" stroke:none;fill-rule:nonzero;fill:rgb(9.019608%,10.588235%,24.313725%);fill-opacity:1;" d="M 66.425781 60.433594 C 66.578125 58.414062 69.714844 56.550781 72.527344 54.667969 C 70.085938 56.953125 67.800781 59.25 67.378906 61.667969 L 66.425781 60.433594 "/>
<path style=" stroke:none;fill-rule:nonzero;fill:rgb(69.411765%,69.411765%,68.235294%);fill-opacity:1;" d="M 92.175781 78.085938 C 91.660156 77.464844 90.257812 77.300781 88.761719 77.523438 L 90.015625 78.738281 C 90.015625 78.738281 88.71875 84.246094 77.601562 75.234375 C 70.757812 69.6875 69.394531 67.027344 69.394531 67.027344 C 69.394531 67.027344 68.695312 72.835938 67.042969 73.101562 C 65.386719 73.367188 62.535156 68.453125 62.183594 66.074219 C 61.835938 63.699219 62.003906 62.246094 63.148438 61.667969 C 65.011719 60.722656 65.320312 61.613281 66.765625 61.964844 C 57.574219 53.882812 61.078125 78.394531 69.441406 73.914062 L 70.007812 70.433594 C 74.164062 71.761719 80.011719 82.046875 89.214844 81.578125 C 91.613281 81.457031 92.832031 79.894531 92.175781 78.085938 "/>
<path style=" stroke:none;fill-rule:nonzero;fill:rgb(69.411765%,69.411765%,68.235294%);fill-opacity:1;" d="M 98.1875 62.609375 C 97.519531 63.152344 96.707031 63.242188 96.003906 62.871094 L 96.125 63.285156 L 94.070312 67.847656 L 96.40625 72.277344 L 96.011719 73.101562 C 96.011719 73.101562 97.457031 73.082031 97.421875 73.746094 C 97.386719 74.40625 98.09375 75.015625 96.582031 75.558594 C 97.015625 76.824219 96.816406 78.363281 96.816406 78.363281 C 96.070312 77.199219 95.449219 77.34375 94.820312 77.960938 C 95.351562 79.433594 98.28125 83.589844 98.535156 75.367188 L 98.082031 72.46875 C 98.75 71.464844 98.472656 69.652344 98.03125 68.15625 C 98.875 66.75 98.703125 64.65625 98.1875 62.609375 "/>
<path style=" stroke:none;fill-rule:nonzero;fill:rgb(9.019608%,10.588235%,24.313725%);fill-opacity:1;" d="M 97.421875 73.746094 C 97.421875 73.746094 96.226562 70.582031 93.707031 72.226562 C 91.335938 70.964844 89.710938 72.277344 87.777344 74.464844 C 90.648438 72.597656 91.78125 73.773438 93.78125 73.714844 C 95.292969 73.773438 95.171875 72.742188 97.421875 73.746094 "/>
<path style=" stroke:none;fill-rule:nonzero;fill:rgb(69.411765%,69.411765%,68.235294%);fill-opacity:1;" d="M 86.695312 66.871094 C 86.375 66.613281 86.066406 66.378906 85.765625 66.222656 C 86.046875 66.53125 86.359375 66.742188 86.695312 66.871094 "/>
<path style=" stroke:none;fill-rule:nonzero;fill:rgb(69.411765%,69.411765%,68.235294%);fill-opacity:1;" d="M 90.015625 63.09375 C 90.089844 62.617188 90.402344 61.667969 90.402344 61.667969 L 88.8125 56.15625 C 88.378906 57.828125 87.101562 58.167969 86.101562 60.027344 C 86.175781 60.726562 86.304688 62.222656 86.058594 62.609375 C 85.730469 63.125 84.847656 65.214844 85.765625 66.222656 C 88.09375 66.601562 89.621094 66.9375 90.929688 63.898438 C 90.949219 63.878906 90.96875 63.859375 90.992188 63.839844 C 90.542969 63.6875 89.96875 63.410156 90.015625 63.09375 "/>
<path style=" stroke:none;fill-rule:nonzero;fill:rgb(69.411765%,69.411765%,68.235294%);fill-opacity:1;" d="M 86.695312 61.796875 C 86.695312 61.796875 86.308594 61.964844 84.0625 61.796875 C 81.816406 61.632812 79.050781 60.140625 79.050781 60.140625 C 79.050781 60.140625 78.589844 59.480469 78.546875 58.945312 C 78.503906 58.40625 78.546875 57.671875 78.546875 57.671875 C 78.546875 57.671875 77.964844 57.082031 80.601562 56.605469 C 83.238281 56.128906 83.980469 56.070312 85.359375 57.246094 C 86.738281 58.425781 87.316406 59.238281 87.5 60.144531 C 87.6875 61.050781 86.695312 61.796875 86.695312 61.796875 "/>
<path style=" stroke:none;fill-rule:nonzero;fill:rgb(9.019608%,10.588235%,24.313725%);fill-opacity:1;" d="M 88.8125 56.15625 C 88.8125 56.15625 87.195312 57.1875 86.480469 56.597656 C 83.710938 54.257812 79.078125 55.761719 78.546875 57.671875 C 80.9375 56.507812 83.058594 56.144531 84.402344 57.609375 C 82.3125 57.382812 80.898438 58.085938 79.050781 60.140625 C 81.726562 58.652344 83.988281 59.078125 86.039062 60.140625 C 87.046875 58.179688 88.371094 57.863281 88.8125 56.15625 "/>
<path style=" stroke:none;fill-rule:nonzero;fill:rgb(9.019608%,10.588235%,24.313725%);fill-opacity:1;" d="M 71.746094 73.625 L 69.363281 71.453125 C 68.433594 70.867188 66.652344 71.957031 67.117188 73.785156 L 69.171875 76.058594 L 71.746094 73.625 "/>
<path style=" stroke:none;fill-rule:nonzero;fill:rgb(98.431373%,75.686275%,3.137255%);fill-opacity:1;" d="M 67.097656 80.785156 C 65.667969 80.785156 64.5 80.191406 63.808594 79.113281 C 63 77.851562 62.933594 76.09375 63.609375 74.339844 L 64.722656 75.28125 C 64.4375 76.460938 64.597656 77.5625 65.171875 78.324219 C 65.671875 78.992188 66.457031 79.359375 67.382812 79.359375 C 67.382812 79.359375 67.382812 79.359375 67.386719 79.359375 C 67.6875 79.359375 68.007812 79.320312 68.332031 79.246094 C 69.289062 79.019531 69.972656 78.300781 70.160156 77.320312 C 70.378906 76.167969 69.925781 74.460938 68.027344 73.078125 C 68.042969 72.902344 68.132812 72.6875 68.273438 72.519531 C 68.398438 72.367188 68.546875 72.277344 68.65625 72.277344 C 68.679688 72.277344 68.722656 72.28125 68.773438 72.320312 C 70.664062 73.652344 71.695312 75.585938 71.472656 77.371094 C 71.292969 78.8125 70.324219 79.945312 68.742188 80.554688 C 68.167969 80.707031 67.613281 80.785156 67.097656 80.785156 "/>
</g>
</svg>
