<svg xmlns="http://www.w3.org/2000/svg" xmlns:xlink="http://www.w3.org/1999/xlink" width="1344" zoomAndPan="magnify" viewBox="0 0 1008 1295.99994" height="1728" preserveAspectRatio="xMidYMid meet" version="1.0"><defs><g/><clipPath id="id1"><path d="M 355 531 L 641.859375 531 L 641.859375 870.507812 L 355 870.507812 Z M 355 531 " clip-rule="nonzero"/></clipPath><clipPath id="id2"><path d="M 336.878906 463.847656 L 671.378906 463.847656 L 671.378906 695.960938 L 336.878906 695.960938 Z M 336.878906 463.847656 " clip-rule="nonzero"/></clipPath></defs><g fill="rgb(9.01947%, 10.5896%, 24.308777%)" fill-opacity="1"><g transform="translate(245.443266, 784.120001)"><g><path d="M 24.453125 40.03125 L 19.03125 31.15625 L 24.421875 23.921875 L 14.03125 6.921875 L 5.125 8.40625 L -0.09375 -0.15625 L 46.359375 -6.65625 L 51.59375 1.90625 Z M 40.171875 2.6875 L 22.359375 5.578125 L 29.4375 17.15625 Z M 40.171875 2.6875 "/></g></g></g><g fill="rgb(9.01947%, 10.5896%, 24.308777%)" fill-opacity="1"><g transform="translate(275.116744, 830.884415)"><g><path d="M 11.34375 12.546875 L 31.921875 -28.859375 L 38.9375 -21.109375 L 22.734375 9.375 L 54.71875 -3.640625 L 61.4375 3.78125 L 18.0625 19.984375 Z M 11.34375 12.546875 "/></g></g></g><g fill="rgb(9.01947%, 10.5896%, 24.308777%)" fill-opacity="1"><g transform="translate(311.030354, 869.725503)"><g><path d="M 46.0625 -20.09375 C 49.5 -17.519531 52.050781 -14.398438 53.71875 -10.734375 C 55.382812 -7.078125 56.007812 -3.289062 55.59375 0.625 C 55.1875 4.539062 53.742188 8.15625 51.265625 11.46875 C 48.773438 14.78125 45.703125 17.1875 42.046875 18.6875 C 38.390625 20.195312 34.5625 20.671875 30.5625 20.109375 C 26.570312 19.546875 22.859375 17.976562 19.421875 15.40625 C 15.972656 12.820312 13.425781 9.691406 11.78125 6.015625 C 10.132812 2.347656 9.507812 -1.441406 9.90625 -5.359375 C 10.3125 -9.285156 11.769531 -12.921875 14.28125 -16.265625 C 16.757812 -19.578125 19.828125 -21.972656 23.484375 -23.453125 C 27.140625 -24.941406 30.945312 -25.40625 34.90625 -24.84375 C 38.863281 -24.289062 42.582031 -22.707031 46.0625 -20.09375 Z M 41.0625 -13.25 C 39.15625 -14.675781 37.019531 -15.519531 34.65625 -15.78125 C 32.300781 -16.039062 30.019531 -15.691406 27.8125 -14.734375 C 25.601562 -13.773438 23.75 -12.296875 22.25 -10.296875 C 20.71875 -8.265625 19.8125 -6.046875 19.53125 -3.640625 C 19.25 -1.242188 19.546875 1.050781 20.421875 3.25 C 21.304688 5.445312 22.703125 7.257812 24.609375 8.6875 C 26.515625 10.113281 28.625 10.9375 30.9375 11.15625 C 33.25 11.382812 35.503906 11.003906 37.703125 10.015625 C 39.898438 9.035156 41.765625 7.53125 43.296875 5.5 C 44.796875 3.5 45.707031 1.3125 46.03125 -1.0625 C 46.351562 -3.4375 46.082031 -5.703125 45.21875 -7.859375 C 44.351562 -10.023438 42.96875 -11.820312 41.0625 -13.25 Z M 41.0625 -13.25 "/></g></g></g><g fill="rgb(9.01947%, 10.5896%, 24.308777%)" fill-opacity="1"><g transform="translate(357.844581, 902.752218)"><g><path d="M 4.15625 2.265625 L 24.703125 -35.546875 L 33.25 -30.90625 L 12.703125 6.90625 Z M 4.15625 2.265625 "/></g></g></g><g fill="rgb(9.01947%, 10.5896%, 24.308777%)" fill-opacity="1"><g transform="translate(381.3701, 916.035863)"><g><path d="M 36.5625 -32.3125 C 40.664062 -30.78125 44.015625 -28.5625 46.609375 -25.65625 C 49.203125 -22.75 50.820312 -19.4375 51.46875 -15.71875 C 52.125 -12 51.722656 -8.179688 50.265625 -4.265625 C 48.804688 -0.347656 46.59375 2.796875 43.625 5.171875 C 40.664062 7.554688 37.234375 8.992188 33.328125 9.484375 C 29.429688 9.972656 25.390625 9.441406 21.203125 7.890625 L 4.4375 1.65625 L 19.4375 -38.671875 Z M 24.625 0.4375 C 26.851562 1.269531 29.054688 1.488281 31.234375 1.09375 C 33.421875 0.695312 35.363281 -0.25 37.0625 -1.75 C 38.757812 -3.257812 40.0625 -5.226562 40.96875 -7.65625 C 41.863281 -10.070312 42.140625 -12.4375 41.796875 -14.75 C 41.453125 -17.070312 40.566406 -19.097656 39.140625 -20.828125 C 37.710938 -22.566406 35.84375 -23.863281 33.53125 -24.71875 L 25.703125 -27.640625 L 16.390625 -2.625 Z M 24.625 0.4375 "/></g></g></g><g fill="rgb(9.01947%, 10.5896%, 24.308777%)" fill-opacity="1"><g transform="translate(456.631901, 939.218382)"><g><path d="M 26.921875 -40.703125 C 32.378906 -40.191406 36.472656 -38.5 39.203125 -35.625 C 41.941406 -32.757812 43.09375 -28.957031 42.65625 -24.21875 C 42.1875 -19.238281 40.320312 -15.515625 37.0625 -13.046875 C 33.800781 -10.578125 29.460938 -9.597656 24.046875 -10.109375 L 15.53125 -10.90625 L 14.390625 1.34375 L 4.71875 0.4375 L 8.734375 -42.40625 Z M 24.3125 -18.21875 C 27.050781 -17.957031 29.195312 -18.378906 30.75 -19.484375 C 32.3125 -20.597656 33.207031 -22.363281 33.4375 -24.78125 C 33.65625 -27.144531 33.097656 -28.992188 31.765625 -30.328125 C 30.441406 -31.671875 28.410156 -32.472656 25.671875 -32.734375 L 17.65625 -33.484375 L 16.296875 -18.96875 Z M 24.3125 -18.21875 "/></g></g></g><g fill="rgb(9.01947%, 10.5896%, 24.308777%)" fill-opacity="1"><g transform="translate(506.871222, 943.417316)"><g><path d="M 4.71875 -0.4375 L 0.75 -43.28125 L 10.421875 -44.171875 L 12.078125 -26.296875 L 31.484375 -28.09375 L 29.828125 -45.96875 L 39.5 -46.859375 L 43.46875 -4.015625 L 33.796875 -3.125 L 32.234375 -20.015625 L 12.828125 -18.21875 L 14.390625 -1.328125 Z M 4.71875 -0.4375 "/></g></g></g><g fill="rgb(9.01947%, 10.5896%, 24.308777%)" fill-opacity="1"><g transform="translate(562.54013, 936.658473)"><g><path d="M 4.609375 -1.109375 L -5.453125 -42.953125 L 3.984375 -45.21875 L 14.046875 -3.375 Z M 4.609375 -1.109375 "/></g></g></g><g fill="rgb(9.01947%, 10.5896%, 24.308777%)" fill-opacity="1"><g transform="translate(588.48489, 930.588618)"><g><path d="M 19.9375 -40.75 C 17.382812 -41.238281 14.800781 -41.414062 12.1875 -41.28125 C 9.582031 -41.144531 7.457031 -40.765625 5.8125 -40.140625 C 4.25 -39.546875 3.113281 -38.785156 2.40625 -37.859375 C 1.707031 -36.929688 1.570312 -35.914062 2 -34.8125 C 2.53125 -33.394531 3.597656 -32.5625 5.203125 -32.3125 C 6.804688 -32.0625 9.144531 -32.0625 12.21875 -32.3125 C 15.28125 -32.550781 17.851562 -32.609375 19.9375 -32.484375 C 22.03125 -32.359375 24.015625 -31.726562 25.890625 -30.59375 C 27.765625 -29.457031 29.203125 -27.570312 30.203125 -24.9375 C 31.179688 -22.363281 31.335938 -19.890625 30.671875 -17.515625 C 30.015625 -15.140625 28.675781 -13.019531 26.65625 -11.15625 C 24.644531 -9.300781 22.128906 -7.800781 19.109375 -6.65625 C 15.847656 -5.414062 12.429688 -4.773438 8.859375 -4.734375 C 5.285156 -4.703125 1.96875 -5.242188 -1.09375 -6.359375 L -0.28125 -15.15625 C 2.4375 -14.082031 5.328125 -13.488281 8.390625 -13.375 C 11.460938 -13.269531 14.085938 -13.628906 16.265625 -14.453125 C 18.148438 -15.171875 19.488281 -16.070312 20.28125 -17.15625 C 21.082031 -18.25 21.238281 -19.445312 20.75 -20.75 C 20.351562 -21.789062 19.671875 -22.507812 18.703125 -22.90625 C 17.734375 -23.300781 16.625 -23.503906 15.375 -23.515625 C 14.125 -23.523438 12.441406 -23.4375 10.328125 -23.25 C 7.273438 -22.976562 4.726562 -22.894531 2.6875 -23 C 0.65625 -23.101562 -1.285156 -23.695312 -3.140625 -24.78125 C -5.003906 -25.875 -6.429688 -27.71875 -7.421875 -30.3125 C -8.335938 -32.726562 -8.484375 -35.09375 -7.859375 -37.40625 C -7.242188 -39.726562 -5.953125 -41.820312 -3.984375 -43.6875 C -2.023438 -45.5625 0.5 -47.082031 3.59375 -48.25 C 6.363281 -49.300781 9.242188 -49.929688 12.234375 -50.140625 C 15.222656 -50.347656 18.003906 -50.171875 20.578125 -49.609375 Z M 19.9375 -40.75 "/></g></g></g><g fill="rgb(9.01947%, 10.5896%, 24.308777%)" fill-opacity="1"><g transform="translate(633.044729, 913.308723)"><g><path d="M 4.046875 -2.453125 L -18.1875 -39.296875 L -9.859375 -44.3125 L -0.59375 -28.9375 L 16.078125 -39.015625 L 6.8125 -54.390625 L 15.140625 -59.40625 L 37.375 -22.5625 L 29.046875 -17.546875 L 20.28125 -32.078125 L 3.609375 -22 L 12.375 -7.46875 Z M 4.046875 -2.453125 "/></g></g></g><g fill="rgb(9.01947%, 10.5896%, 24.308777%)" fill-opacity="1"><g transform="translate(680.203671, 882.964419)"><g><path d="M 3.65625 -3 L -23.625 -36.28125 L -16.109375 -42.453125 L 11.171875 -9.171875 Z M 3.65625 -3 "/></g></g></g><g fill="rgb(9.01947%, 10.5896%, 24.308777%)" fill-opacity="1"><g transform="translate(701.443662, 866.178795)"><g><path d="M 12 -35.75 L -8.5 -54.484375 L -2.28125 -61.296875 L 29.484375 -32.28125 L 23.515625 -25.734375 L -10.984375 -29 L 9.453125 -10.34375 L 3.1875 -3.5 L -28.578125 -32.515625 L -22.59375 -39.046875 Z M 12 -35.75 "/></g></g></g><g fill="rgb(9.01947%, 10.5896%, 24.308777%)" fill-opacity="1"><g transform="translate(739.37053, 823.197904)"><g><path d="M -1.046875 -40 L 3.34375 -47.203125 L 17.625 -38.515625 C 17.863281 -35.679688 17.597656 -32.625 16.828125 -29.34375 C 16.054688 -26.070312 14.898438 -23.175781 13.359375 -20.65625 C 11.128906 -16.988281 8.273438 -14.171875 4.796875 -12.203125 C 1.316406 -10.234375 -2.382812 -9.269531 -6.3125 -9.3125 C -10.25 -9.363281 -14.003906 -10.472656 -17.578125 -12.640625 C -21.117188 -14.796875 -23.796875 -17.625 -25.609375 -21.125 C -27.429688 -24.632812 -28.234375 -28.421875 -28.015625 -32.484375 C -27.796875 -36.554688 -26.546875 -40.460938 -24.265625 -44.203125 C -22.609375 -46.941406 -20.492188 -49.316406 -17.921875 -51.328125 C -15.347656 -53.335938 -12.648438 -54.773438 -9.828125 -55.640625 L -6.734375 -47.359375 C -8.847656 -46.773438 -10.816406 -45.816406 -12.640625 -44.484375 C -14.472656 -43.148438 -15.929688 -41.585938 -17.015625 -39.796875 C -18.316406 -37.660156 -18.988281 -35.394531 -19.03125 -33 C -19.082031 -30.601562 -18.53125 -28.359375 -17.375 -26.265625 C -16.21875 -24.179688 -14.554688 -22.476562 -12.390625 -21.15625 C -10.210938 -19.832031 -7.910156 -19.140625 -5.484375 -19.078125 C -3.054688 -19.015625 -0.789062 -19.550781 1.3125 -20.6875 C 3.425781 -21.820312 5.132812 -23.457031 6.4375 -25.59375 C 7.09375 -26.675781 7.625 -27.960938 8.03125 -29.453125 C 8.4375 -30.941406 8.679688 -32.46875 8.765625 -34.03125 Z M -1.046875 -40 "/></g></g></g><g fill="rgb(9.01947%, 10.5896%, 24.308777%)" fill-opacity="1"><g transform="translate(350.639842, 456.269628)"><g><path d="M -28.3125 -48.261719 L -22.648438 -39.347656 L -18.460938 -42.011719 L 0.164062 -12.710938 L -4.019531 -10.050781 L 1.6875 -1.074219 L 26.800781 -17.039062 L 21.09375 -26.015625 L 14.207031 -21.640625 L 8.753906 -30.210938 L 21.582031 -38.367188 L 15.875 -47.347656 L 3.046875 -39.191406 L -4.421875 -50.9375 L 5.773438 -57.417969 L 9.59375 -51.410156 L 21.542969 -59.007812 L 12.058594 -73.925781 Z M -28.3125 -48.261719 "/></g></g></g><g fill="rgb(9.01947%, 10.5896%, 24.308777%)" fill-opacity="1"><g transform="translate(398.155203, 427.665625)"><g><path d="M -18.992188 -52.628906 L -15.054688 -42.832031 L -10.378906 -44.710938 L 2.566406 -12.496094 L -2.109375 -10.617188 L 1.855469 -0.746094 L 26.5 -10.648438 L 22.53125 -20.519531 L 17.929688 -18.671875 L 4.984375 -50.886719 L 9.589844 -52.734375 L 5.652344 -62.53125 Z M -18.992188 -52.628906 "/></g></g></g><g fill="rgb(9.01947%, 10.5896%, 24.308777%)" fill-opacity="1"><g transform="translate(430.302263, 413.831705)"><g><path d="M 1.964844 -0.371094 L 15.71875 -2.972656 L 15.441406 -9.191406 C 19.097656 -6.21875 25.296875 -3.5625 33.234375 -5.066406 C 42.589844 -6.835938 53.230469 -13.40625 50.914062 -25.667969 C 47.417969 -44.140625 16.648438 -36.367188 15.117188 -44.460938 C 14.597656 -47.214844 17.472656 -49.222656 19.753906 -49.652344 C 25.253906 -50.695312 30.4375 -48.253906 31.539062 -42.4375 L 45.765625 -45.128906 L 42.035156 -64.859375 L 28.515625 -62.300781 L 28.976562 -55.550781 C 24.71875 -60.851562 17.636719 -61.710938 11.03125 -60.460938 C 3.332031 -59.003906 -6.675781 -51.65625 -4.476562 -40.023438 C -0.6875 -19.980469 29.007812 -28.28125 30.167969 -22.152344 C 30.789062 -18.851562 26.980469 -17.476562 24.230469 -16.957031 C 20.898438 -16.492188 14.085938 -16.34375 12.839844 -22.945312 L -1.78125 -20.179688 Z M 1.964844 -0.371094 "/></g></g></g><g fill="rgb(9.01947%, 10.5896%, 24.308777%)" fill-opacity="1"><g transform="translate(489.448122, 402.779403)"><g><path d="M 5.707031 -55.660156 L 5.007812 -45.125 L 9.398438 -44.832031 L 7.085938 -10.109375 L 2.695312 -10.402344 L 1.996094 0.132812 L 27.855469 1.855469 L 28.558594 -8.683594 L 23.609375 -9.011719 L 24.410156 -21.0625 L 39.578125 -20.054688 L 38.773438 -8.003906 L 34.066406 -8.316406 L 33.363281 2.21875 L 59.304688 3.945312 L 60.007812 -6.589844 L 55.375 -6.898438 L 57.6875 -41.617188 L 62.316406 -41.3125 L 63.019531 -51.847656 L 37.078125 -53.574219 L 36.375 -43.035156 L 41.085938 -42.722656 L 40.28125 -30.671875 L 25.117188 -31.679688 L 25.917969 -43.734375 L 30.867188 -43.402344 L 31.570312 -53.9375 Z M 5.707031 -55.660156 "/></g></g></g><g fill="rgb(9.01947%, 10.5896%, 24.308777%)" fill-opacity="1"><g transform="translate(554.079541, 408.066349)"><g><path d="M 19.027344 -52.617188 L 15.792969 -42.566406 L 20.589844 -41.023438 L 9.960938 -7.972656 L 5.160156 -9.515625 L 1.902344 0.613281 L 47.824219 15.382812 L 53.359375 -1.824219 L 40.183594 -6.0625 L 37.90625 1.019531 L 25.722656 -2.902344 L 29.714844 -15.3125 L 44.183594 -10.660156 L 47.441406 -20.789062 L 32.972656 -25.441406 L 36.355469 -35.949219 L 48.539062 -32.03125 L 46.359375 -25.253906 L 59.53125 -21.015625 L 64.945312 -37.84375 Z M 19.027344 -52.617188 "/></g></g></g><g fill="rgb(9.01947%, 10.5896%, 24.308777%)" fill-opacity="1"><g transform="translate(607.220857, 425.192222)"><g><path d="M 30.996094 -46.582031 L 25.503906 -37.65625 L 29.320312 -35.308594 L 11.050781 -5.601562 L 7.234375 -7.945312 L 1.703125 1.046875 L 23.714844 14.582031 L 29.246094 5.589844 L 25.089844 3.03125 L 31.582031 -7.53125 C 37.648438 -3.800781 37.476562 -1.839844 33.660156 4.359375 C 28.757812 12.332031 30.160156 19.675781 39.085938 25.164062 C 46.652344 29.816406 52.261719 26.035156 55.742188 20.378906 L 58.046875 16.632812 L 53.480469 13.824219 L 52.097656 16.074219 C 51.257812 17.4375 50.210938 17.917969 49.1875 17.289062 C 47.960938 16.535156 48.601562 14.582031 50.402344 11.652344 C 53.421875 6.746094 51.710938 0.0585938 47.425781 -3.515625 C 53.585938 -0.855469 60.113281 -2.003906 63.382812 -7.320312 C 68.160156 -15.085938 68.949219 -23.242188 53.140625 -32.964844 Z M 43.398438 -26.746094 L 46.808594 -24.652344 C 50.757812 -22.21875 51.75 -18.792969 49.277344 -14.773438 C 47.058594 -11.160156 43.296875 -10.84375 39.34375 -13.277344 L 36.277344 -15.160156 Z M 43.398438 -26.746094 "/></g></g></g><g clip-path="url(#id1)"><path fill="rgb(9.01947%, 10.5896%, 24.308777%)" d="M 631.066406 675.003906 C 641.066406 657.773438 632.1875 634.0625 632.1875 634.0625 C 643.722656 612.3125 636.339844 582.800781 616.046875 563.125 C 547.382812 500.871094 417.210938 530.425781 403.867188 649.535156 C 401.753906 677.878906 396.332031 701.117188 410.660156 738.972656 C 402.769531 750.785156 401.101562 755.570312 414.253906 775.113281 C 378.949219 787.203125 405.863281 836.175781 355.085938 825.539062 C 411.183594 870.507812 438.695312 861.25 445.515625 813.449219 C 458.574219 854.550781 505 839.5625 516.605469 870.507812 C 524.828125 827.957031 494.972656 789.335938 470.019531 783.25 C 475.59375 780.117188 481.390625 778.335938 485.503906 771.875 C 499.253906 792.0625 538.738281 833.023438 626.382812 843.914062 C 617.195312 824.089844 658.90625 805.851562 632.792969 734.289062 C 636.769531 722.53125 633.726562 712.6875 632.449219 704.992188 C 636.503906 694.039062 636.683594 685.980469 631.066406 675.003906 " fill-opacity="1" fill-rule="nonzero"/></g><path fill="rgb(100%, 100%, 100%)" d="M 617.660156 628.03125 C 595.492188 610.570312 540.96875 622.078125 489 662.039062 C 484.511719 678.539062 476.40625 673.101562 476.933594 696.203125 C 404.328125 599.207031 421.851562 764.039062 471.558594 737.507812 L 474.582031 719.039062 C 496.75 726.09375 527.941406 780.691406 577.023438 778.203125 C 589.816406 777.554688 596.320312 769.277344 592.808594 759.671875 C 589.929688 756.207031 581.867188 755.414062 573.46875 756.867188 C 585.046875 741.890625 584.746094 752.242188 601.921875 750.820312 C 609.800781 750.167969 612.410156 745.152344 616.316406 746.238281 C 618.636719 752.957031 617.570312 761.132812 617.570312 761.132812 C 613.597656 754.953125 610.273438 755.734375 606.914062 759.003906 C 609.746094 766.824219 625.386719 788.890625 626.730469 745.234375 L 624.328125 729.839844 C 627.886719 724.503906 626.410156 714.890625 624.042969 706.949219 C 629.585938 697.75 626.910156 682.960938 622.699219 670.007812 C 630.390625 652.226562 629.753906 640.34375 617.660156 628.03125 " fill-opacity="1" fill-rule="nonzero"/><path fill="rgb(9.01947%, 10.5896%, 24.308777%)" d="M 629.753906 642.472656 C 618.417969 633.792969 608.585938 630.949219 594.152344 633.402344 C 575.9375 622.882812 552.8125 615.425781 527.648438 607.882812 L 518.582031 611.578125 C 546.371094 620.0625 574.347656 630.914062 588.777344 640.121094 L 607.25 672.359375 C 615.75 689.28125 639.625 677.9375 629.753906 642.472656 " fill-opacity="1" fill-rule="nonzero"/><path fill="rgb(69.40918%, 69.40918%, 68.238831%)" d="M 486.746094 688.347656 C 501.671875 703.964844 509.65625 700.492188 531.871094 706.742188 C 524.519531 713.589844 519.769531 724.925781 521.804688 741.796875 C 516.945312 738.28125 514.914062 730.949219 515.554688 717.5 C 501.324219 714.722656 486.746094 688.347656 486.746094 688.347656 " fill-opacity="1" fill-rule="nonzero"/><path fill="rgb(9.01947%, 10.5896%, 24.308777%)" d="M 460.015625 700.144531 C 444.554688 668.472656 439.386719 669.085938 438.144531 696.328125 C 443.164062 682.097656 446.546875 682.800781 450.988281 703.617188 C 442.132812 710.832031 447.316406 717.148438 456.71875 723.3125 C 461.578125 714.289062 460.015625 700.144531 460.015625 700.144531 " fill-opacity="1" fill-rule="nonzero"/><path fill="rgb(98.429871%, 75.689697%, 3.138733%)" d="M 626.484375 617.351562 C 580.820312 603.992188 507.375 624.601562 469.226562 668.664062 C 425.972656 636.148438 414.75 678.957031 428.804688 724.878906 C 431.234375 740.503906 428.253906 742.378906 421.097656 733.644531 C 402.945312 677.875 429.007812 652.875 475.257812 615.570312 C 444.609375 641.6875 410.339844 651.132812 410.898438 701.652344 C 403.441406 647.261719 424.546875 657.59375 449.308594 620.3125 C 449.308594 620.3125 418.695312 621.308594 403.683594 654.488281 C 417.445312 510.839844 556.773438 528.136719 602.820312 566.132812 C 566.148438 551.191406 496.390625 602.125 471.328125 611.253906 C 522.503906 589.765625 576.121094 574.71875 606.769531 592.492188 C 581.316406 585.296875 499.644531 602.386719 467.234375 638.542969 C 538.195312 593.859375 620.34375 593.128906 626.484375 617.351562 " fill-opacity="1" fill-rule="nonzero"/><path fill="rgb(98.429871%, 75.689697%, 3.138733%)" d="M 416.070312 744.527344 C 416.070312 744.527344 409.515625 769.957031 433.5 773.035156 C 429.515625 766.589844 428.242188 759.785156 430.421875 750.285156 C 421.847656 749.296875 416.070312 744.527344 416.070312 744.527344 " fill-opacity="1" fill-rule="nonzero"/><path fill="rgb(98.429871%, 75.689697%, 3.138733%)" d="M 419.960938 779.476562 C 398.558594 791.433594 401.085938 826.226562 383.605469 832.429688 C 383.605469 832.429688 410.125 840.472656 421.730469 799.839844 C 423.769531 824.28125 418.722656 834.820312 406.355469 842.878906 C 425.273438 846.617188 439.414062 827.507812 436.4375 782.199219 C 429.398438 786.292969 424.246094 783.574219 419.960938 779.476562 " fill-opacity="1" fill-rule="nonzero"/><path fill="rgb(98.429871%, 75.689697%, 3.138733%)" d="M 440.425781 777.894531 C 444.761719 808.171875 468.894531 839.890625 501.671875 842.878906 C 480.421875 828.492188 470.71875 817.742188 461.699219 799.839844 C 472.5 808.609375 486.953125 824.578125 503.492188 825.914062 C 495.667969 813.28125 474.664062 789.503906 461.410156 783.835938 C 454.914062 786.730469 442.542969 779.1875 440.425781 777.894531 " fill-opacity="1" fill-rule="nonzero"/><path fill="rgb(9.01947%, 10.5896%, 24.308777%)" d="M 613.875 681.074219 C 606.175781 685.785156 591.21875 678.632812 586.179688 684.339844 C 579.199219 700.46875 571.050781 698.683594 558.625 696.667969 C 565.039062 699.988281 571.980469 709.929688 581.191406 707.285156 C 557.011719 713.105469 565.839844 737.121094 529.566406 729.730469 C 557.441406 748.875 596.660156 725.871094 600.015625 717.8125 C 616.175781 735.277344 624.3125 733.1875 633.042969 720.761719 C 616.921875 730.5 619.097656 704.152344 608.011719 703.144531 C 610.652344 695.15625 613.265625 689.03125 613.875 681.074219 " fill-opacity="1" fill-rule="nonzero"/><g clip-path="url(#id2)"><path fill="rgb(9.01947%, 10.5896%, 24.308777%)" d="M 627.855469 598.910156 C 627.855469 598.910156 605.085938 599.527344 558.59375 599.527344 C 512.097656 599.527344 445.921875 631.210938 427.441406 645.265625 C 399.039062 666.871094 408.558594 695.925781 408.195312 695.894531 C 386.101562 694.019531 370.292969 698.757812 355.414062 677.046875 C 340.539062 655.335938 337.417969 578.589844 336.894531 564.816406 C 335.960938 540.070312 376.964844 558.144531 428.113281 552.414062 C 452.765625 549.652344 493.875 498.269531 527.601562 481.207031 C 598.007812 445.589844 632.382812 474.785156 637.167969 481.03125 C 645.101562 491.371094 638.382812 530.199219 638.382812 540.332031 C 638.382812 550.460938 672.234375 541.445312 671.371094 561.664062 C 670.613281 579.300781 630.910156 622.339844 630.878906 630.613281 L 627.855469 598.910156 " fill-opacity="1" fill-rule="nonzero"/></g><path fill="rgb(9.01947%, 10.5896%, 24.308777%)" d="M 625.234375 618.820312 C 584.015625 595.082031 571.582031 598.3125 472.347656 598.492188 C 503.695312 578.792969 552.515625 558.71875 614.203125 563.878906 L 635.855469 604.320312 L 625.234375 618.820312 " fill-opacity="1" fill-rule="nonzero"/><path fill="rgb(9.01947%, 10.5896%, 24.308777%)" d="M 440.328125 659.160156 C 446.984375 651.5625 456.789062 642.15625 466.949219 632.542969 C 453.984375 639.476562 442.457031 648.941406 432.867188 661.832031 L 440.328125 659.160156 " fill-opacity="1" fill-rule="nonzero"/><path fill="rgb(98.429871%, 75.689697%, 3.138733%)" d="M 626.257812 494.292969 C 625.867188 491.339844 625.648438 488.394531 625.511719 485.445312 C 617.898438 481.207031 606.191406 476.84375 590.714844 477.410156 C 562.464844 478.445312 539.007812 488.832031 501.082031 517.109375 C 493.460938 522.792969 485.925781 529.171875 478.636719 535.34375 C 462.984375 548.589844 448.195312 561.105469 435.246094 564.703125 C 411.464844 571.304688 368.226562 568.238281 354.261719 567.007812 C 354.261719 567.03125 354.257812 567.050781 354.257812 567.074219 C 353.964844 570.03125 353.882812 572.964844 353.964844 575.90625 C 353.972656 575.929688 353.980469 575.949219 353.992188 575.96875 C 361.636719 576.648438 376.71875 577.769531 393.003906 577.769531 C 408.605469 577.769531 425.3125 576.738281 437.640625 573.316406 C 452.480469 569.195312 467.988281 556.066406 484.410156 542.164062 C 491.597656 536.085938 499.03125 529.792969 506.425781 524.277344 C 542.703125 497.230469 564.847656 487.304688 591.042969 486.347656 C 609.496094 485.667969 621.566406 492.914062 626.660156 496.796875 C 626.507812 495.898438 626.359375 495.050781 626.257812 494.292969 " fill-opacity="1" fill-rule="nonzero"/><path fill="rgb(98.429871%, 75.689697%, 3.138733%)" d="M 639.117188 552.394531 C 639.117188 552.394531 642.746094 554.882812 648.296875 555.675781 C 653.851562 556.472656 658.835938 556.472656 662.234375 557.832031 C 665.632812 559.1875 665.40625 561.570312 665.40625 561.570312 L 662.007812 569.953125 C 662.007812 569.953125 658.835938 566.101562 654.417969 565.308594 C 649.996094 564.515625 648.523438 564.96875 644.785156 564.402344 C 641.046875 563.835938 639.117188 562.476562 639.117188 562.476562 L 639.117188 552.394531 " fill-opacity="1" fill-rule="nonzero"/><path fill="rgb(9.01947%, 10.5896%, 24.308777%)" d="M 455.480469 665.925781 C 456.296875 655.214844 473.019531 645.3125 488.027344 635.324219 C 475 647.457031 462.808594 659.648438 460.578125 672.484375 L 455.480469 665.925781 " fill-opacity="1" fill-rule="nonzero"/><path fill="rgb(69.40918%, 69.40918%, 68.238831%)" d="M 592.808594 759.671875 C 590.058594 756.367188 582.59375 755.496094 574.613281 756.6875 L 581.304688 763.136719 C 581.304688 763.136719 574.371094 792.378906 515.085938 744.527344 C 478.589844 715.070312 471.3125 700.941406 471.3125 700.941406 C 471.3125 700.941406 467.59375 731.785156 458.769531 733.195312 C 449.949219 734.605469 434.734375 708.523438 432.867188 695.894531 C 431 683.265625 431.910156 675.558594 438.003906 672.484375 C 447.933594 667.464844 449.585938 672.191406 457.296875 674.066406 C 408.28125 631.15625 426.972656 761.304688 471.558594 737.507812 L 474.582031 719.039062 C 496.75 726.09375 527.941406 780.691406 577.023438 778.203125 C 589.816406 777.554688 596.320312 769.277344 592.808594 759.671875 " fill-opacity="1" fill-rule="nonzero"/><path fill="rgb(69.40918%, 69.40918%, 68.238831%)" d="M 624.875 677.492188 C 621.3125 680.363281 616.988281 680.855469 613.230469 678.871094 L 613.875 681.074219 L 602.929688 705.308594 L 615.378906 728.816406 L 613.269531 733.195312 C 613.269531 733.195312 620.980469 733.097656 620.796875 736.613281 C 620.617188 740.132812 624.371094 743.371094 616.316406 746.238281 C 618.636719 752.957031 617.570312 761.132812 617.570312 761.132812 C 613.597656 754.953125 610.273438 755.734375 606.914062 759.003906 C 609.746094 766.824219 625.386719 788.890625 626.730469 745.234375 L 624.328125 729.839844 C 627.886719 724.503906 626.410156 714.890625 624.042969 706.949219 C 628.539062 699.484375 627.625 688.347656 624.875 677.492188 " fill-opacity="1" fill-rule="nonzero"/><path fill="rgb(9.01947%, 10.5896%, 24.308777%)" d="M 620.796875 736.613281 C 620.796875 736.613281 614.417969 719.824219 600.984375 728.554688 C 588.332031 721.851562 579.679688 728.832031 569.355469 740.445312 C 584.671875 730.515625 590.71875 736.773438 601.371094 736.453125 C 609.4375 736.773438 608.792969 731.292969 620.796875 736.613281 " fill-opacity="1" fill-rule="nonzero"/><path fill="rgb(69.40918%, 69.40918%, 68.238831%)" d="M 563.589844 700.121094 C 561.882812 698.753906 560.238281 697.503906 558.625 696.667969 C 560.128906 698.3125 561.792969 699.425781 563.589844 700.121094 " fill-opacity="1" fill-rule="nonzero"/><path fill="rgb(69.40918%, 69.40918%, 68.238831%)" d="M 581.304688 680.070312 C 581.691406 677.539062 583.355469 672.484375 583.355469 672.484375 L 574.875 643.21875 C 572.570312 652.105469 565.75 653.902344 560.417969 663.773438 C 560.824219 667.492188 561.507812 675.429688 560.1875 677.492188 C 558.441406 680.222656 553.742188 691.316406 558.625 696.667969 C 571.050781 698.683594 579.199219 700.46875 586.179688 684.339844 C 586.28125 684.226562 586.390625 684.128906 586.5 684.023438 C 584.117188 683.207031 581.050781 681.734375 581.304688 680.070312 " fill-opacity="1" fill-rule="nonzero"/><path fill="rgb(69.40918%, 69.40918%, 68.238831%)" d="M 563.589844 673.179688 C 563.589844 673.179688 561.523438 674.058594 549.550781 673.179688 C 537.578125 672.300781 522.816406 664.375 522.816406 664.375 C 522.816406 664.375 520.363281 660.878906 520.128906 658.023438 C 519.894531 655.167969 520.128906 651.277344 520.128906 651.277344 C 520.128906 651.277344 517.035156 648.140625 531.097656 645.613281 C 545.15625 643.085938 549.109375 642.757812 556.46875 649.019531 C 563.828125 655.277344 566.90625 659.597656 567.890625 664.410156 C 568.878906 669.222656 563.589844 673.179688 563.589844 673.179688 " fill-opacity="1" fill-rule="nonzero"/><path fill="rgb(9.01947%, 10.5896%, 24.308777%)" d="M 574.875 643.21875 C 574.875 643.21875 566.265625 648.691406 562.449219 645.570312 C 547.671875 633.144531 522.96875 641.128906 520.128906 651.277344 C 532.875 645.097656 544.1875 643.160156 551.363281 650.941406 C 540.214844 649.730469 532.671875 653.46875 522.816406 664.375 C 537.085938 656.472656 549.160156 658.738281 560.097656 664.375 C 565.472656 653.964844 572.523438 652.285156 574.875 643.21875 " fill-opacity="1" fill-rule="nonzero"/><path fill="rgb(9.01947%, 10.5896%, 24.308777%)" d="M 483.851562 735.96875 L 471.148438 724.4375 C 466.195312 721.34375 456.699219 727.121094 459.175781 736.824219 L 470.128906 748.910156 L 483.851562 735.96875 " fill-opacity="1" fill-rule="nonzero"/><path fill="rgb(98.429871%, 75.689697%, 3.138733%)" d="M 459.066406 773.996094 C 451.445312 773.996094 445.21875 770.84375 441.535156 765.117188 C 437.222656 758.414062 436.855469 749.078125 440.457031 739.777344 L 446.40625 744.769531 C 444.882812 751.046875 445.734375 756.882812 448.792969 760.933594 C 451.464844 764.476562 455.660156 766.429688 460.597656 766.429688 C 460.597656 766.429688 460.597656 766.429688 460.601562 766.429688 C 462.214844 766.429688 463.914062 766.222656 465.65625 765.816406 C 470.761719 764.625 474.402344 760.808594 475.394531 755.601562 C 476.558594 749.476562 474.152344 740.417969 464.027344 733.082031 C 464.101562 732.144531 464.59375 731.007812 465.347656 730.105469 C 466.015625 729.308594 466.789062 728.816406 467.371094 728.816406 C 467.511719 728.816406 467.730469 728.839844 468.007812 729.054688 C 478.09375 736.125 483.585938 746.382812 482.40625 755.875 C 481.453125 763.53125 476.28125 769.53125 467.832031 772.777344 C 464.777344 773.582031 461.828125 773.996094 459.066406 773.996094 " fill-opacity="1" fill-rule="nonzero"/></svg>